<svg xmlns="http://www.w3.org/2000/svg" id="Layer_1" data-name="Layer 1" viewBox="0 0 150 150"><defs><style>      .cls-1 {        fill: #fff;      }      .cls-2 {        fill: #88c7e8;      }      .cls-3 {        fill: #07addc;      }      .cls-4 {        fill: #2f80c2;      }    </style></defs><rect class="cls-1" width="150" height="150" rx="40" ry="40"></rect><g><path class="cls-2" d="M54.16,91.1c-1.92,0-3.47-1.55-3.47-3.47v-25.27c0-1.92,1.55-3.47,3.47-3.47s3.47,1.55,3.47,3.47v25.27c0,1.92-1.55,3.47-3.47,3.47Z"></path><path class="cls-3" d="M95.84,91.1c-1.92,0-3.47-1.55-3.47-3.47v-25.25c0-1.92,1.55-3.47,3.47-3.47s3.47,1.55,3.47,3.47v25.25c0,1.92-1.55,3.47-3.47,3.47Z"></path><path class="cls-4" d="M75,101.23c-1.92,0-3.47-1.55-3.47-3.47V52.25c0-1.92,1.55-3.47,3.47-3.47s3.47,1.55,3.47,3.47v45.51c0,1.92-1.55,3.47-3.47,3.47Z"></path></g></svg>