<svg xmlns="http://www.w3.org/2000/svg" id="Layer_1" data-name="Layer 1" viewBox="0 0 150 150"><defs><style>      .cls-1 {        fill: #fff;      }      .cls-2 {        fill: #444342;      }      .cls-3 {        fill: #e6b40f;      }      .cls-4 {        fill: #edc83d;      }      .cls-5 {        fill: #d5b041;      }      .cls-6 {        fill: #b5a151;      }      .cls-7 {        fill: #f11c33;      }      .cls-8 {        fill: #717070;      }      .cls-9 {        fill: #dbbf60;      }      .cls-10 {        fill: #f3d259;      }      .cls-11 {        fill: #fde686;      }      .cls-12 {        fill: #222f5a;      }      .cls-13 {        fill: #f0cc4b;      }      .cls-14 {        fill: #fdf48b;      }      .cls-15 {        fill: #fbe179;      }      .cls-16 {        fill: #383735;      }      .cls-17 {        fill: #f6d867;      }      .cls-18 {        fill: #fbe27d;      }      .cls-19 {        fill: #e9c02a;      }      .cls-20 {        fill: #b4b4b3;      }      .cls-21 {        fill: #fefefe;      }      .cls-22 {        fill: #fade75;      }      .cls-23 {        fill: #f9dd6f;      }    </style></defs><rect class="cls-1" width="150" height="150" rx="40" ry="40"></rect><g><path class="cls-21" d="M17.67,79.87c.21,.42,.6,.57,1,.72,.9,.42,1.84,.66,2.84,.71,1.05,.12,2.11,.09,3.16-.02,.3-.03,.61-.03,.9-.1,.47-.1,.89-.09,1.23,.29,.58,.43,1.23,.77,1.91,1,.08,.03,.15,.08,.22,.1,1.27,.48,2.59,.75,3.93,.91,.63,.14,1.28,.15,1.92,.18,2.07,.09,4.11-.09,6.15-.44,1.02-.17,2.03-.37,2.99-.78,.55-.23,1.07-.52,1.41-1.04,.27-.4,.22-.81-.12-1.16-.26-.27-.59-.45-.95-.52,.36-.77,.57-1.57,.56-2.43,.03-.23,0-.45-.03-.69-.21-1.3-.94-2.26-2.01-2.99-.69-.54-1.46-.92-2.28-1.22-.11-.04-.22-.09-.33-.13-.81-.27-1.64-.52-2.49-.61-1.01-.21-2.04-.26-3.07-.25-.02,0-.03,.02-.05,.03h-.27c-.9-.02-1.77,.15-2.67,.26,.21-.39,.33-.8,.44-1.22,.09-.33,.22-.67,.16-1.03,0-.27,.03-.56,0-.83-.09-.97-.4-1.84-1.05-2.59-1.05-1.49-2.55-1.9-4.28-1.77-.13,0-.26,.02-.38,.03-.67,.1-1.33,.22-1.95,.49-.93,.27-1.8,.69-2.62,1.23-.91,.5-1.75,1.11-2.5,1.82-.15,.04-.22,.18-.33,.28-.72,.67-1.41,1.38-1.98,2.19-.18,.25-.37,.49-.54,.74-.54,.83-1.02,1.69-1.3,2.65-.14,.29-.21,.61-.27,.92-.33,1.66-.1,3.16,1.31,4.3l.06,.06c.33,.39,.78,.6,1.21,.84,.02,.02,.04,.04,.07,.05h0Z"></path><path class="cls-20" d="M44.28,79.74c.37,.08,.69,.25,.95,.52,.33,.34,.39,.75,.12,1.16-.34,.51-.87,.8-1.41,1.04-.95,.41-1.97,.61-2.99,.78-2.03,.34-4.08,.52-6.15,.44-.64-.03-1.29-.04-1.92-.18,0-.03,0-.04,0-.07,.09-.02,.19-.01,.27,.02h0c.4,.03,.8,.1,1.2,.07h.94c.3-.02,.6,.05,.89-.05h.1c.15-.02,.31,.04,.45-.05,.43,0,.86-.05,1.28-.17,.13,0,.27,.02,.39-.06,.19,0,.38-.04,.56-.11,.14,0,.27-.03,.39-.1,.2-.02,.39-.03,.56-.16,.18-.02,.36-.06,.51-.17,.16-.02,.31-.06,.44-.16,.1-.02,.21-.03,.28-.12,.82-.32,1.56-.75,2.17-1.39,.41-.33,.68-.79,.98-1.22h0Z"></path><path class="cls-14" d="M26.89,64.27c1.73-.13,3.23,.28,4.28,1.78,.08,.31,.25,.58,.33,.9,.18,.63,.14,1.27,.1,1.91-.09,.36-.18,.72-.29,1.08-.23,.74-.61,1.41-.98,2.09-.15,.07-.3,.16-.49,.15,0-.11,.06-.19,.1-.27,.5-.83,.89-1.7,1.07-2.65,.14-.75,.14-1.5-.14-2.23-.14-.5-.43-.95-.83-1.28-.25-.28-.57-.45-.9-.62-.29-.15-.31-.13-.43,.18-.08,.21-.07,.44-.23,.61-.35-.1-.69-.27-1.05-.28-.02-.02-.04-.04-.06-.05-.02-.17,.03-.33,.09-.48,.09-.24,.03-.4-.24-.45-.19-.06-.33-.16-.34-.39h0Zm15.89,9.37c1.06,.74,1.79,1.69,2.01,2.99,.03,.23,.08,.45,.03,.69-.09,.74-.38,1.43-.83,2.01-.25,.32-.55,.57-.82,.86-.07,0-.11,.05-.16,.09-.51,.36-1.04,.68-1.61,.92-.15-.15,.05-.29,0-.44,.33-.16,.65-.35,.95-.57,.67-.48,1.24-1.04,1.55-1.83,.21-.28,.19-.63,.27-.94,.02-.3,.02-.6-.05-.89,.02-.33-.16-.62-.27-.93-.06-.19-.16-.21-.33-.12-.22,.13-.42,.31-.68,.37-.15-.32-.34-.61-.56-.88,.09-.21,.29-.27,.46-.37,.14-.08,.2-.2,.13-.32-.1-.2-.08-.42-.09-.63h0Z"></path><path class="cls-16" d="M26.82,81.49c-.34-.38-.77-.4-1.23-.29-.29,.07-.6,.07-.9,.1,0-.13-.12-.15-.21-.2-.3-.15-.62-.28-.88-.5-.31-.25-.66-.46-.85-.84,.27-.11,.56-.23,.83-.34,.55-.21,1.05-.5,1.56-.79,.08,.04,.08,.12,.1,.19,.18,.53,.45,1.03,.81,1.47,.27,.33,.55,.67,.92,.9,.03,.04,.08,.08,.11,.12-.03,.15-.19,.11-.27,.18h0Z"></path><path class="cls-19" d="M16.33,78.91c-1.41-1.13-1.64-2.63-1.31-4.3,.06-.32,.13-.63,.27-.92,.15,0,.21,.21,.38,.16-.21,.82-.37,1.65-.22,2.5,.18,1.05,.73,1.83,1.69,2.31,.15,.08,.21,.04,.26-.11,.08-.27,.19-.54,.23-.82,.09,.03,.18,.08,.27,.11,.27,.14,.56,.18,.83,.28-.06,.48-.28,.94-.22,1.45-.46-.02-.9-.13-1.34-.27-.27-.09-.5-.28-.78-.33-.01-.02-.03-.04-.05-.06h0Z"></path><path class="cls-2" d="M22.73,79.75c.19,.38,.54,.58,.85,.84,.27,.21,.58,.34,.88,.5,.09,.04,.2,.07,.21,.2-1.05,.11-2.11,.14-3.16,.02-.02-.22-.2-.34-.31-.51-.14-.19-.35-.33-.36-.6,.65-.09,1.27-.27,1.89-.45h0Z"></path><path class="cls-9" d="M30.35,72.02c.37-.68,.75-1.35,.98-2.09,.11-.36,.2-.72,.29-1.08,.15,.26,.33,.48,.6,.61,.06,.36-.08,.69-.16,1.03-.1,.42-.22,.84-.44,1.22-.21,.14-.45,.09-.67,.2-.21,.02-.39,.16-.6,.12h0Z"></path><path class="cls-11" d="M42.78,73.64c0,.22-.02,.44,.09,.65,.07,.13,0,.24-.13,.32-.17,.09-.37,.16-.46,.37-.08-.06-.15-.12-.22-.17,0-.11-.09-.17-.17-.24-.16-.15-.33-.28-.5-.42,.1-.18,.28-.25,.44-.37,.09-.06,.17-.15,.03-.23-.22-.12-.43-.29-.69-.35-.19-.2-.48-.21-.67-.39v-.38c.82,.28,1.59,.66,2.28,1.21h0Z"></path><path class="cls-8" d="M20.84,80.2c0,.27,.22,.41,.36,.6,.11,.16,.3,.28,.31,.51-.98-.05-1.95-.29-2.84-.71,.03-.16-.14-.29-.11-.45,.5,.06,.99,.16,1.51,.11,.26,.03,.51-.08,.77-.05h0Z"></path><path class="cls-11" d="M26.89,64.27c0,.23,.15,.34,.36,.38,.28,.05,.33,.21,.24,.45-.06,.15-.11,.31-.09,.48h-.94c-.03-.2,.05-.38,.09-.56,.03-.12,.08-.27-.18-.23l-.86,.13s-.08,.03-.11,.06c-.23,.02-.45,.11-.67,.16-.06-.11-.11-.22-.17-.33,.63-.27,1.29-.39,1.95-.49,.13-.03,.26-.04,.38-.05h0Z"></path><path class="cls-4" d="M15.67,73.86c-.17,.04-.23-.16-.38-.16,.27-.96,.75-1.82,1.3-2.65,.16-.26,.36-.5,.54-.74,.12,0,.16,.13,.27,.16-.06,.1-.09,.21-.17,.32-.67,.94-1.23,1.95-1.56,3.07h0Z"></path><path class="cls-5" d="M20.06,80.23c-.51,.05-1-.04-1.51-.11-.3-.09-.59-.17-.89-.26h0s-.03-.06-.07-.06c-.43-.24-.87-.46-1.21-.84,.28,.05,.51,.24,.77,.33,.44,.15,.87,.26,1.34,.27h1.05c.11,.28,.34,.45,.52,.66h0Zm23.11-.04c.27-.28,.58-.54,.82-.86,.46-.58,.74-1.28,.83-2.01,.02,.86-.2,1.65-.56,2.43-.3,.43-.57,.89-.99,1.23-.09-.25-.1-.51-.11-.78h0Z"></path><path class="cls-13" d="M30.96,71.92c.21-.1,.47-.06,.67-.2,.88-.1,1.77-.27,2.67-.26h.27c0,.11-.08,.22-.05,.33-.3,.03-.6,.03-.91,.05-.9,.06-1.77,.21-2.66,.4,0-.11,0-.22,0-.33h0Z"></path><path class="cls-5" d="M32.22,69.47c-.27-.13-.45-.35-.6-.61,.03-.64,.08-1.28-.1-1.91-.09-.31-.27-.58-.33-.9,.64,.75,.96,1.62,1.05,2.59,.03,.27,0,.56,0,.83Z"></path><path class="cls-13" d="M17.39,70.47c-.1-.03-.15-.16-.27-.16,.57-.81,1.25-1.52,1.98-2.19,.1-.09,.18-.24,.33-.28,.04,.09,.07,.2,.18,.25-.76,.78-1.54,1.53-2.23,2.38h0Z"></path><path class="cls-17" d="M34.52,71.79c-.03-.12,.04-.22,.05-.33,.02,0,.03-.03,.05-.03,1.03,0,2.06,.03,3.07,.25v.33c-.52-.05-1.03-.19-1.55-.16-.55-.07-1.08-.06-1.62-.07h0Zm-14.89-3.7c-.11-.04-.13-.15-.18-.25,.76-.71,1.6-1.32,2.5-1.82l.23,.23c-.08,.12-.21,.17-.33,.24-.4,.25-.82,.48-1.17,.81-.09,.06-.16,.11-.25,.17-.28,.19-.52,.45-.81,.62h0Z"></path><path class="cls-23" d="M37.67,72.02v-.33c.87,.08,1.68,.33,2.49,.61,.11,.03,.22,.09,.33,.13v.38c-.24-.02-.45-.15-.67-.22-.52-.14-1.02-.35-1.55-.45-.21,.03-.4-.09-.61-.11h0Z"></path><path class="cls-22" d="M22.18,66.25l-.23-.23c.81-.52,1.68-.94,2.61-1.23,.06,.11,.11,.22,.17,.33-.23,.12-.51,.14-.72,.28-.37,.09-.69,.29-1.03,.44-.21,.09-.43,.16-.58,.33-.08,.03-.15,.04-.22,.07Z"></path><path class="cls-8" d="M32.88,83.43s0,.04,0,.07c-1.35-.15-2.67-.44-3.93-.91-.08-.03-.15-.07-.22-.1,.02-.05,.03-.11,.06-.16,.59,.23,1.17,.51,1.79,.64,.13,.03,.26,.06,.38,.09,.15,.05,.3,.1,.46,.09,.14,.07,.27,.09,.43,.1,.16,.03,.33,.07,.5,.1,.18,.02,.35,.04,.53,.07h0Z"></path><path class="cls-2" d="M28.79,82.32c-.02,.05-.03,.11-.06,.16-.69-.24-1.33-.56-1.91-1,.08-.07,.23-.03,.25-.18,.09,.06,.18,.11,.27,.17,.08,.09,.16,.15,.27,.19,.34,.3,.77,.46,1.17,.66h0Z"></path><path class="cls-20" d="M17.66,79.87c.3,.09,.59,.17,.89,.26-.02,.16,.14,.29,.11,.45-.39-.15-.79-.3-1-.71h0Zm-.06-.06s.06,0,.07,.05c-.03-.02-.05-.03-.07-.05Z"></path><path class="cls-5" d="M16.33,78.91l.06,.06-.06-.06Z"></path><path class="cls-9" d="M43.17,80.19c0,.27,.03,.53,.11,.78-.61,.64-1.35,1.08-2.17,1.39v-1s.04-.04,.06-.05h.05s.09,0,.11-.05c.02-.02,.03-.03,.06-.05,.57-.24,1.1-.57,1.61-.92,.05-.04,.09-.09,.16-.09h0Z"></path><path class="cls-15" d="M38.01,83.25c-.41,.12-.85,.18-1.28,.17q.5-.18,.5-.71,0-.33-.33-.29c-.21-.15-.4,.06-.61,0-.09-.15,.03-.26,.06-.39,.13,0,.27,.03,.39-.06,.6-.01,1.2-.11,1.78-.27l.39-.05v.33c.05,.12-.3-.04-.11,.16-.32,.03-.45,.18-.39,.51,.03,.18,0,.37,0,.55-.13,.08-.27,.06-.39,.06,.22-.28,.07-.62,.09-.93,0-.05-.06-.06-.11-.06-.4,0-.5,.09-.49,.5,0,.16-.05,.39,.03,.48,.08,.07,.31,0,.47,0h0Z"></path><path class="cls-14" d="M36.28,82.41c.21,.05,.4-.15,.61,0-.21,0-.3,.09-.28,.3,.02,.17,0,.34,0,.52,0,.09,0,.17,.11,.18-.14,.09-.3,.03-.45,.05,0-.25,0-.5,0-.75,0-.07,.02-.15-.08-.19-.28-.13-.54,.03-.54,.34v.09q0,.52,.51,.52c-.29,.1-.59,.03-.89,.05v-.05c0-.25,0-.5,0-.75,0-.27-.19-.19-.33-.2-.14,0-.31-.05-.29,.2,.02,.25,0,.5,0,.75v.05h-.33l.05-.1c0-.32,0-.63,0-.94,.64,.03,1.27-.09,1.9-.07h0Z"></path><path class="cls-17" d="M31.85,83.25c-.15,0-.29-.04-.43-.1,.35-.03,.19-.31,.2-.47,.03-.5,0-.51-.47-.58-.14-.02-.19,.02-.19,.15v.81c-.13-.03-.26-.06-.38-.09,.19-.34,.12-.69,.04-1.05,.28,.05,.57,.09,.86,.17,.49,.12,.99,.11,1.47,.27v.06c-.09,0-.17,.02-.16,.14,0,.25-.02,.51,.02,.74,.03,.14,.25,0,.33,.14v.02c-.08-.03-.17-.04-.27-.02-.18-.02-.35-.05-.53-.08,.2-.15,.1-.36,.1-.54,.02-.41,0-.42-.39-.49,0,0-.02,0-.03,0-.13-.03-.19,.02-.19,.15,0,.25,0,.51,0,.77h0Zm6.94-1.11c-.19-.21,.16-.05,.11-.16,.46-.04,.9-.19,1.34-.33,0,.27,0,.53,0,.8,0,.13,.03,.21,.18,.21-.15,.12-.33,.15-.51,.17,0-.21,0-.4,0-.61,0-.1,.08-.27-.12-.28-.23-.03-.43,.12-.44,.3,0,.25,0,.5,0,.75-.12,.07-.26,.1-.39,.1v-.76c.02-.13-.03-.19-.15-.18h0Z"></path><path class="cls-9" d="M40.41,82.64c-.15,0-.18-.08-.18-.21,0-.27,0-.53,0-.8h.16c.05,0,.12,0,.16,0,.23-.1,.29,0,.28,.22,0,.21,0,.42,0,.63-.13,.09-.28,.14-.44,.15h0Zm-4.23,.83q-.51,0-.51-.51v-.09c0-.31,.26-.47,.54-.34,.09,.04,.08,.12,.08,.19,0,.25,0,.5,0,.75-.03,0-.07,0-.1,0h0Zm2.62-1.34c.13,0,.17,.06,.17,.18,0,.26,0,.51,0,.76-.18,.07-.37,.11-.56,.11,0-.18,.02-.37,0-.55-.05-.33,.08-.48,.39-.51h0Zm.55,.83c0-.25,0-.5,0-.75,0-.19,.21-.33,.44-.3,.2,.03,.11,.18,.12,.28,0,.21,0,.4,0,.61-.17,.12-.37,.15-.57,.15Z"></path><path class="cls-18" d="M32.95,82.41v-.06h.11c.39,.02,.77,.09,1.17,.06,.03,0,.08,.03,.12,.05-.09,0-.19,0-.27,0-.29-.05-.35,.09-.34,.35,.02,.6,0,.6,.67,.6l-.05,.1c-.4,.03-.8-.05-1.2-.07v-.02c.19,0,.29-.05,.27-.27-.02-.16,0-.33,0-.49,0-.14-.03-.21-.18-.21-.1,0-.2-.04-.28-.06h0Z"></path><path class="cls-10" d="M40.85,82.48c0-.21,0-.42,0-.63,0-.22-.05-.32-.28-.22-.05,.02-.11,0-.16,0v-.05c.24-.08,.48-.15,.72-.22v1c-.08,.09-.17,.11-.27,.12h0Z"></path><path class="cls-18" d="M34.68,83.53v-.05h.61v.05h-.61Z"></path><path class="cls-8" d="M33.14,83.43v.02h0v-.02Z"></path><path class="cls-4" d="M30.95,71.92v.33c-.97,.3-1.94,.62-2.84,1.12-.03-.11-.08-.22-.11-.33,.13-.16,.32-.21,.5-.28,.21-.1,.53-.15,.63-.32,.18-.33,.29-.7,.32-1.08-.2,.15-.24,.34-.35,.48-.05,.06-.08,.16-.18,.14-.09-.03-.06-.12-.06-.19-.02-.69-.04-1.38-.05-2.07,0-.44,.03-.87-.02-1.3-.08-.72-.02-1.44-.03-2.16,0-.03,.03-.06,.05-.09,.28,.15,.48,.4,.72,.61,.44,.63,.66,1.31,.62,2.08,.13-.03,.14-.11,.16-.17,.15-.47,.3-.94,.45-1.41,.03-.09,.04-.21,.17-.22,.28,.73,.27,1.47,.14,2.23-.18,.95-.57,1.83-1.07,2.65-.04,.08-.1,.15-.1,.27,.18,.03,.33-.08,.49-.15,.19,.03,.37-.11,.58-.11h0Z"></path><path class="cls-10" d="M26.46,65.58h.94s.04,.04,.06,.05c.02,.58,0,1.16,.04,1.74,.05,.96,0,1.92,.07,2.88,.04,.64-.03,1.29,.05,1.94,.03,.31,.07,.64-.05,.96-.21-.15-.45-.21-.69-.09-.15,.06-.27,.14-.42,.2,.04-.61-.06-1.21-.05-1.82,0-.22-.1-.27-.3-.21-.09,.03-.17,.11-.27,.04-.02-.05,.03-.07,.05-.09,.05-.05,.15-.09,.09-.17-.04-.07-.14-.04-.21-.03-.15,.02-.29,.05-.43,.09-.27,.05-.37-.03-.44-.31,.06-.02,.11-.03,.17-.05-.02,.15,.06,.22,.21,.21,.12,0,.23-.02,.35-.05,.34-.1,.67-.16,.99,.11,.15,.13,.33,0,.5-.04,.08-.02,.06-.11-.02-.14-.38-.13-.71-.39-1.14-.38,0-.23,.02-.46-.05-.69-.02-.05,0-.12-.08-.14-.06-.02-.11,.03-.15,.07-.14,.16-.27,.33-.4,.49-.35,.46-.88,.73-1.28,1.14,0,0-.03,0-.05,0,0-.15,.18-.19,.17-.33,.12,0,.18-.09,.24-.16,.45-.48,.91-.96,1.35-1.46,.34-.4,.87-.62,1.13-1.1,.08-.05,.16-.13,.04-.18-.16-.07-.33-.21-.54-.09-.06-.04-.06-.11-.06-.17-.05-.74-.07-1.47-.05-2.21,.07,0,.15-.02,.22-.02h0Z"></path><path class="cls-13" d="M27.56,73.15c.12-.32,.09-.64,.05-.96-.08-.64,0-1.29-.05-1.94-.06-.96,0-1.92-.07-2.88-.03-.58-.02-1.16-.04-1.74,.37,.02,.7,.18,1.05,.28,.05,.12,.21,.12,.28,.21-.02,.03-.05,.06-.05,.09,.02,.72-.04,1.44,.03,2.16,.05,.43,0,.87,.02,1.3l.05,2.07c0,.07-.03,.16,.06,.19,.1,.03,.13-.07,.18-.14,.11-.14,.15-.33,.35-.48-.03,.38-.14,.75-.32,1.08-.09,.17-.4,.22-.63,.32-.17,.08-.37,.12-.5,.28-.17,0-.27,.19-.45,.17,.02,0,.02-.02,.02-.03h0Z"></path><path class="cls-10" d="M30.9,67.02c-.13,.02-.14,.12-.17,.22-.15,.47-.29,.94-.45,1.41-.02,.07-.03,.15-.16,.17,.04-.77-.18-1.47-.62-2.08,.25-.06,.21-.28,.28-.45,.09-.19,.03-.45,.28-.55,.41,.33,.7,.75,.84,1.27h0Z"></path><path class="cls-23" d="M30.06,65.75c-.24,.11-.19,.37-.27,.55-.08,.16-.03,.39-.28,.45-.24-.21-.44-.46-.72-.61-.07-.1-.22-.09-.28-.21,.16-.17,.15-.4,.23-.61,.12-.31,.14-.32,.43-.18,.33,.16,.65,.33,.9,.62h0Z"></path><path class="cls-13" d="M38.5,81.7c-.58,.17-1.18,.26-1.78,.27,0-.13,.1-.18,.21-.24,.2-.12,.39-.24,.58-.36,.04-.03,.09-.07,.07-.14-.03-.05-.08-.03-.12-.04-.16-.03-.31,.06-.46,.05-.1,0-.25,.04-.3-.09-.04-.1,.05-.18,.12-.26,.4-.48,.81-.95,1.21-1.43,.11-.13,.15-.27-.04-.33-.27-.09-.52-.23-.81-.23-.11-.05-.22-.11-.33-.16,.06-.07,.13-.06,.2-.03,.33,.11,.68,.17,1.02,.23,.2,.03,.4,.02,.47-.17,.07-.2-.14-.27-.28-.34-.45-.2-.9-.38-1.36-.53-.14-.04-.35-.03-.38-.26,.44,.19,.89,.32,1.34,.48,.31,.11,.64,.16,.91,.37,.23,.17,.19,0,.2-.12,.2-.04,.3-.21,.42-.34,.35-.41,.69-.83,1.05-1.25,.55-.66,1.11-1.31,1.65-1.96,.08,.06,.15,.12,.22,.17,.21,.27,.41,.57,.56,.88,.03,.17,.13,.32,.11,.5-.43,.32-.7,.77-1.05,1.17-.56,.63-1.09,1.29-1.64,1.94-.27,.33-.54,.65-.81,.98-.05,.06-.09,.13-.05,.2,.05,.09,.14,.02,.2,0,.2-.06,.39-.13,.6-.21,0,.15-.09,.18-.17,.22-.32,.2-.63,.38-.93,.58-.21,.13-.46,.21-.59,.45Z"></path><path class="cls-4" d="M38.51,81.7c.13-.25,.39-.33,.59-.46,.31-.21,.63-.39,.93-.58,.08-.04,.17-.08,.17-.22-.21,.07-.4,.15-.6,.21-.06,.02-.14,.09-.2,0-.04-.07,0-.14,.05-.2,.27-.33,.54-.65,.81-.98,.54-.65,1.07-1.3,1.64-1.94,.34-.39,.63-.84,1.05-1.17,.08,.2,.08,.41,.11,.61,.02,.37-.09,.71-.17,1.05-.23,.47-.53,.89-.87,1.3,.08,0,.17-.03,.24-.08,.41-.24,.81-.49,1.23-.74,.13-.08,.25-.16,.4-.15-.31,.79-.89,1.35-1.55,1.83-.3,.21-.62,.41-.95,.57-.8,.39-1.63,.69-2.5,.88-.12,.03-.26,.04-.39,.06h0Z"></path><path class="cls-13" d="M43.9,78.36c-.15,0-.28,.08-.4,.15-.41,.25-.81,.5-1.23,.74-.07,.04-.16,.07-.24,.08,.33-.41,.63-.83,.87-1.3,.24-.05,.43-.21,.63-.33,.21-.11,.37-.31,.64-.28-.09,.32-.07,.66-.27,.94h0Z"></path><path class="cls-22" d="M43.07,76.97c-.03-.21-.03-.41-.11-.61,.02-.18-.09-.33-.11-.5,.26-.06,.45-.25,.68-.37,.17-.09,.27-.07,.33,.12,.1,.3,.28,.58,.27,.93-.16,0-.28,.1-.42,.16-.21,.09-.37,.3-.63,.27h0Z"></path><path class="cls-10" d="M43.07,76.97c.27,.03,.43-.17,.63-.27,.14-.07,.26-.17,.42-.16,.07,.29,.07,.59,.05,.89-.27-.03-.44,.17-.64,.28-.21,.11-.39,.27-.63,.33,.09-.35,.19-.69,.17-1.06Z"></path><path class="cls-11" d="M38.9,81.64c.87-.19,1.71-.49,2.5-.88,.05,.15-.15,.29,0,.44-.02,.02-.03,.03-.06,.05-.04,0-.09,0-.11,.05h-.05s-.04,.04-.06,.05c-.24,.08-.48,.15-.72,.22-.02,.02-.04,.04-.06,.05h-.1c-.44,.15-.87,.28-1.34,.33v-.32h0Z"></path><path class="cls-6" d="M27.56,73.14s0,.03,0,.05c-.16,.22-.43,.32-.63,.48-.82,.63-1.49,1.37-1.83,2.37-.21,.62-.11,1.24-.08,1.86l.1,.71c-.51,.29-1.01,.57-1.56,.79-.05-.07-.16-.09-.16-.21,0-.27-.11-.53-.17-.79,0-.11,0-.23,0-.34,.05-.29,.11-.59,.16-.88,.04-.16,.09-.33,.13-.5,.17-.28,.28-.6,.44-.88,.24-.42,.56-.78,.83-1.17,.29-.28,.59-.57,.88-.85,.26-.18,.52-.37,.78-.55,.14-.07,.27-.15,.42-.2,.24-.11,.47-.05,.69,.09h0Z"></path><path class="cls-9" d="M23.23,78.42c.06,.27,.18,.52,.17,.79,0,.11,.11,.14,.16,.21-.27,.11-.56,.23-.83,.34-.63,.17-1.24,.36-1.89,.45-.26-.02-.51,.09-.78,.04-.17-.21-.4-.38-.5-.65,.37-.08,.74-.15,1.11-.22,.06,0,.13,0,.17-.05h.05c.83-.16,1.58-.53,2.33-.9Z"></path><path class="cls-5" d="M25.12,78.62l-.1-.71c.15,.08,.15,.24,.21,.37,.23,.55,.57,1.01,1,1.41,.02,.02,.04,.03,.06,.06,.24,.27,.57,.42,.78,.72-.12-.04-.11,.03-.11,.11v.6c-.37-.23-.64-.57-.92-.9-.36-.43-.64-.93-.81-1.47-.03-.08-.03-.15-.1-.2h0Z"></path><path class="cls-9" d="M26.95,81.19v-.6c0-.08,0-.15,.11-.11,.08,.03,.15,.08,.22,.11l.05,.05v.83c-.09-.06-.18-.11-.27-.17l-.11-.11h0Z"></path><path class="cls-17" d="M18.73,78.13c-.27-.09-.57-.15-.83-.28-.05-2.2-.07-4.41-.17-6.61,.12-.25,.29-.47,.46-.69,.32-.4,.62-.82,1.02-1.16,.09,.05,.07,.14,.07,.22,0,1,.09,2,.05,3,0,.15,.02,.31,.06,.46-.12,.27-.39,.42-.56,.64-.13,.16-.16,.28,.11,.29,.14,.11,.22,.2,.29-.09,.04-.14,.1-.27,.2-.38,.09-.11,.21-.2,.34-.25,0,.13-.13,.18-.16,.28-.11,.12-.32,.23-.25,.4,.07,.16,.27,.21,.47,.21-.03,.14-.09,.23-.27,.18-.37-.1-.44-.03-.36,.36,0,.05,.02,.11,.02,.16-.03,1.1,.04,2.19,.06,3.29l-.56-.05h0Z"></path><path class="cls-3" d="M19.21,69.41c-.4,.33-.7,.75-1.02,1.16-.17,.21-.34,.43-.46,.69-.12,.07-.15,.21-.22,.32-.67,1.12-1.17,2.3-1.17,3.64,0,1.08,.39,1.94,1.29,2.55-.03,.28-.15,.55-.23,.82-.04,.15-.11,.19-.26,.11-.96-.48-1.51-1.26-1.69-2.31-.15-.86,0-1.68,.22-2.5,.33-1.11,.89-2.13,1.56-3.07,.07-.1,.11-.21,.17-.32,.69-.85,1.47-1.6,2.23-2.38,.29-.17,.52-.43,.8-.62,.09-.06,.16-.11,.25-.17,.14,.03,.11,.1,.08,.2-.06,.19-.15,.37-.13,.57-.12,.1-.24,.2-.35,.3-.36,.33-.78,.6-1.06,1.02h0Z"></path><path class="cls-10" d="M17.62,77.75c-.9-.61-1.29-1.47-1.29-2.55,0-1.35,.51-2.52,1.17-3.64,.07-.11,.09-.24,.22-.32,.1,2.2,.12,4.41,.17,6.61-.09-.03-.18-.07-.27-.1h0Z"></path><path class="cls-4" d="M18.73,78.13l.56,.05c.16,0,.33,0,.5,0-.06,.21-.12,.42-.18,.63-.06,.24,0,.28,.24,.25,.35-.06,.7-.1,1.05-.15,.1,.13,.18,.26,0,.39h-.05c-.06,0-.13,0-.17,.05-.37,.08-.74,.15-1.11,.22h-1.06c-.06-.51,.16-.97,.22-1.46h0Z"></path><path class="cls-17" d="M41.18,73.19c.26,.06,.45,.23,.69,.35,.15,.08,.06,.17-.03,.23-.15,.11-.34,.19-.44,.37-.14-.02-.22,.08-.3,.16-.69,.81-1.4,1.63-2.09,2.45-.34-.02-.65-.21-.99-.22-.09-.09-.16-.07-.16,.05,0,.19-.11,.23-.27,.22-.04,0-.09,0-.09,.09,.27,.08,.54,.16,.81,.25,.25,.08,.27,.15,.09,.36-.11,.13-.22,.24-.27,.41-.45-.11-.89-.23-1.34-.34-.03-.18,.15-.24,.21-.37,.05-.12,.27-.22,.15-.34-.1-.1-.27,.04-.39,.11-.28,.15-.27,.16-.45,.16,.34-.21,.58-.47,.97-.51,.18-.02,.36-.17,.31-.36-.05-.17-.25-.05-.36,0-.39,.15-.77,.25-1.17,.05-.24-.03-.35-.26-.56-.33-.16-.41-.38-.79-.66-1.13-.05-.06-.1-.1-.19-.05-.08,.04-.09,.09-.07,.18,.04,.15,.15,.27,.15,.45,0,.09,.03,.21-.11,.22v-.11c-.02-.21-.22-.32-.27-.5,.09,0,.11-.08,.11-.15,0-.25,.13-.38,.39-.35l.06,.06c.34,.39,.59,.85,.88,1.28-.05,.03-.04,.08,0,.11,.25,.26,.81,.37,1.14,.19,.48-.25,.99-.41,1.5-.57,.2-.06,.4-.16,.61,.03,.03-.14,.07-.24,.09-.34,.03-.15,0-.24-.19-.18-.23,.08-.46,.12-.69,.19,.01-.09,.05-.18,.11-.25,.33-.39,.69-.78,1.01-1.19,.15-.19,.39-.33,.38-.62,.07,.03,.14,.06,.2,.09,.45,.29,.86,.24,1.23-.15-.02,0,0,0,0,0h0Z"></path><path class="cls-10" d="M38.12,77.92c.03-.17,.15-.28,.27-.41,.18-.21,.15-.28-.09-.36-.27-.09-.54-.17-.81-.25,0-.09,.04-.09,.09-.09,.16,0,.27-.03,.27-.22,0-.12,.08-.14,.16-.05,.08,.24,.27,.33,.48,.4,.15,.04,.31,.06,.31,.28,0,.11,.14,.09,.22,.13,.05,.02,.11,0,.14-.05,.08-.13-.02-.45-.15-.55,.69-.81,1.39-1.64,2.09-2.45,.08-.09,.16-.19,.3-.16,.17,.14,.33,.27,.5,.42,.08,.07,.16,.13,.17,.24l-1.65,1.96c-.35,.42-.69,.84-1.05,1.25-.12,.14-.21,.31-.42,.34,0-.13-.03-.19-.17-.23-.21-.04-.45-.08-.65-.2h0Zm3.06-4.73s-.02,0-.03,0c-.37,.39-.78,.44-1.23,.15-.06-.04-.13-.07-.2-.09-.17,0-.3-.09-.45-.17,.05-.11,.15-.15,.25-.21,.11-.08,.28-.1,.31-.28,.22,.07,.43,.21,.67,.22,.19,.19,.48,.2,.67,.39h0Z"></path><path class="cls-17" d="M26.23,65.58c-.01,.74,0,1.48,.05,2.21,0,.07,0,.13,.06,.17-.37,.51-.78,1-1.22,1.45-.11,0-.12-.09-.12-.18v-.42c0-.09,.03-.23-.09-.27-.11-.03-.17,.09-.23,.17-.07,.09-.13,.21-.32,.24,.15-.22,.27-.39,.38-.56,.04-.07,.12-.18,.04-.25-.08-.08-.16,0-.24,.07-.45,.34-.81,.79-1.23,1.17-.08,.08-.14,.18-.27,.18,0-.12,.09-.17,.16-.24,.31-.31,.63-.62,.93-.93,.05-.05,.19-.09,.08-.21,.03-.07,.08-.14,.11-.21,.12,.1,.18,0,.25-.07,.23-.18,.44-.41,.76-.15,.11,.09,.15-.02,.15-.13,.09,0,.18,0,.2-.1,.02-.1-.1-.08-.16-.1-.1-.05-.21-.09-.32-.13-.03-.52,.06-1.05-.05-1.56,.07-.26,.23-.5,.22-.78,.03-.02,.08-.03,.11-.06,.02,.18-.02,.34-.09,.51-.06,.15,0,.21,.16,.22,.22,.04,.43-.05,.65-.03h0Z"></path><path class="cls-10" d="M25.39,64.97c0,.28-.15,.51-.22,.78-.3,.07-.6,.16-.89,.28-.15,.05-.3,.11-.45,.16-.02-.27,.19-.5,.17-.77,.22-.15,.49-.16,.72-.28,.23-.05,.44-.15,.67-.17h0Z"></path><path class="cls-23" d="M26.24,65.58c-.22-.02-.43,.08-.65,.06-.16,0-.22-.07-.16-.22,.06-.16,.1-.33,.09-.51,.29-.03,.57-.09,.86-.13,.26-.03,.21,.11,.18,.23-.04,.19-.12,.36-.09,.56-.07,0-.15,0-.21,0h0Z"></path><path class="cls-3" d="M28.12,73.36c.89-.5,1.86-.81,2.84-1.11,.87-.18,1.76-.34,2.66-.4,.3-.02,.6-.03,.91-.05,.54,0,1.07,0,1.61,.06,0,.15-.12,.19-.22,.26-.13,.08-.3,.11-.33,.29-.35,0-.7,0-1.05,0-.6-.01-1.19,.04-1.77,.16-.44,.03-.85,.15-1.28,.23l-.15,.05c-1.4,.39-2.72,.94-3.74,2.04-.81,.87-1.11,1.86-.71,3.03-.27,.09-.49,.29-.74,.43-.14,.08-.2,.04-.27-.09-.29-.57-.35-1.17-.26-1.77,.15-.98,.75-1.7,1.47-2.33,.32-.3,.72-.5,1.05-.79h0Z"></path><path class="cls-19" d="M35.56,72.41c.04-.18,.21-.21,.33-.29,.1-.07,.21-.11,.22-.26,.52-.03,1.04,.12,1.55,.16,.21,.02,.39,.15,.61,.12,0,.13-.11,.17-.2,.24-.1,.08-.26,.12-.3,.27-.57-.03-1.14-.2-1.72-.19-.15-.09-.33-.03-.5-.06h0Zm-14.94-4.34c-.02-.21,.08-.39,.13-.57,.03-.09,.06-.18-.08-.2,.35-.33,.77-.56,1.17-.81,.11-.07,.25-.12,.33-.24,.07-.02,.15-.04,.21-.06,.09,.09,.06,.2,.03,.3-.05,.14-.09,.27-.08,.42-.24,.15-.5,.28-.72,.45-.23,.18-.51,.28-.69,.54-.14-.02-.2,.13-.31,.16h0Z"></path><path class="cls-4" d="M37.79,72.66c.04-.15,.19-.19,.3-.27,.09-.07,.2-.11,.2-.24,.53,.09,1.04,.31,1.55,.45-.02,.18-.19,.21-.31,.28-.09,.06-.2,.1-.25,.21-.33-.09-.67-.18-1-.27-.15-.06-.35-.02-.49-.15h0Zm-15.45-5.75c-.02-.15,.03-.28,.08-.42,.03-.1,.08-.21-.03-.3,.16-.17,.39-.25,.58-.33,.34-.15,.66-.35,1.03-.44,.02,.27-.18,.5-.17,.77-.28,.12-.58,.21-.83,.39-.24,.07-.44,.24-.66,.33h0Z"></path><path class="cls-9" d="M30.61,81.91c.08,.35,.15,.7-.04,1.05-.63-.14-1.2-.41-1.79-.64-.4-.2-.82-.36-1.17-.66,0-.3,0-.61,0-.91,.34,.09,.63,.29,.94,.45,.03,.04,.07,.05,.11,.05,.04,.07,.1,.05,.16,.05,.03,.04,.06,.05,.11,.05,.55,.26,1.1,.45,1.67,.57h0Zm.34,1.14v-.81c0-.14,.05-.17,.19-.15,.46,.07,.49,.09,.47,.58,0,.16,.16,.44-.2,.47-.16,0-.32-.04-.46-.09h0Zm.89,.2v-.78c0-.14,.06-.19,.19-.15,0,0,.02,0,.03,0,.4,.07,.41,.07,.39,.49,0,.18,.09,.39-.1,.54-.18-.03-.34-.07-.51-.1Z"></path><path class="cls-5" d="M27.62,80.75c0,.3,0,.61,0,.91-.1-.04-.2-.11-.27-.19v-.83c.11,0,.21,.03,.28,.11Z"></path><path class="cls-10" d="M41.23,81.31s.07-.05,.11-.05c-.03,.04-.07,.05-.11,.05Zm-.11,.05s.03-.03,.06-.05c-.03,.02-.04,.03-.06,.05h0Z"></path><path class="cls-17" d="M36.84,78.75c.11,.05,.22,.11,.33,.16,.02,.15-.09,.26-.17,.36l-1.54,1.83c-.05,.06-.15,.11-.09,.21,.04,.08,.13,.04,.21,.04,.33,.02,.66-.02,.99-.05,.06,0,.14-.02,.15,.07,.02,.07-.05,.09-.09,.12-.12,.08-.25,.15-.37,.24-.09,.06-.25,.1-.22,.21,.03,.15,.21,.05,.31,.08-.03,.13-.15,.24-.06,.39-.63-.03-1.26,.09-1.89,.06h-.04s-.08-.05-.12-.05c-.39,.03-.77-.04-1.17-.06,.03-.11,.08-.21,.06-.33,.27,0,.55-.03,.82,.04,.2,.05,1.04-.37,1.13-.54,.06-.12-.03-.12-.1-.12-.41,.02-.82-.1-1.24-.06-.19,.03-.37-.06-.56-.06,0-.05,0-.11,.02-.16,.02-.05,.05-.1,.08-.14,.57-.66,1.12-1.33,1.66-2.01,.16-.21,.4-.35,.45-.64,.13-.02,.25,.04,.37,.08,.36,.13,.7,.28,1.08,.33h0Z"></path><path class="cls-10" d="M36.34,82.03c-.1-.03-.27,.07-.31-.08-.03-.11,.14-.16,.22-.22,.12-.09,.25-.15,.37-.24,.04-.03,.11-.05,.09-.12-.02-.09-.09-.08-.15-.07-.33,.03-.66,.07-.99,.05-.07,0-.16,.03-.21-.04-.05-.09,.04-.15,.09-.21,.51-.61,1.04-1.22,1.54-1.83,.09-.1,.19-.21,.17-.36,.29,0,.55,.15,.81,.23,.19,.06,.15,.2,.04,.33-.4,.47-.81,.95-1.21,1.43-.07,.08-.16,.16-.12,.26,.05,.13,.19,.08,.3,.09,.15,0,.3-.08,.46-.05,.04,0,.1,0,.12,.04,.03,.07-.03,.1-.07,.14-.2,.12-.39,.25-.58,.36-.09,.06-.2,.11-.21,.24-.11,.07-.25,.04-.39,.04h0Z"></path><path class="cls-9" d="M38.01,83.25c-.16,0-.39,.07-.46-.02-.09-.09-.03-.32-.03-.48,0-.41,.09-.5,.49-.5,.05,0,.11,0,.11,.06-.03,.32,.12,.64-.1,.93h0Zm-1.28,.16c-.12,0-.11-.09-.11-.18,0-.17,0-.35,0-.52-.02-.22,.08-.3,.28-.3q.33-.04,.33,.29,0,.53-.51,.71Zm-2.39-.94h.04c0,.32,0,.63,0,.94-.67,0-.65,0-.67-.6,0-.27,.05-.4,.34-.35,.09,.03,.19,0,.27,0h0Zm.94,1h-.61c0-.25,0-.5,0-.75-.02-.25,.15-.21,.29-.2,.14,0,.33-.08,.33,.2,0,.25,0,.5,0,.75Z"></path><path class="cls-13" d="M33.12,82.03c.02,.12-.03,.22-.06,.33h-.11c-.48-.15-.99-.15-1.47-.27-.28-.07-.57-.11-.86-.17-.58-.12-1.13-.3-1.66-.56,.22,.03,.27-.09,.27-.28,.18,0,.32,.15,.5,.11,.27,.16,.59,.23,.89,.33,.04,0,.09,0,.14,.03,.75,.24,1.52,.39,2.31,.43,.03,.03,.04,.05,.06,.07h0Z"></path><path class="cls-9" d="M33.14,83.43c-.08-.13-.31,0-.33-.14-.04-.24-.02-.5-.02-.75,0-.12,.08-.13,.16-.14,.09,.02,.18,.05,.27,.05,.15,0,.19,.07,.18,.21-.01,.16-.01,.33,0,.49,.02,.21-.08,.28-.27,.27h0Z"></path><path class="cls-17" d="M40.34,81.64s.04-.04,.06-.05v.05h-.06Z"></path><path class="cls-19" d="M28.12,73.36c-.33,.29-.73,.49-1.06,.78-.73,.63-1.32,1.35-1.47,2.33-.09,.6-.03,1.22,.26,1.77,.07,.14,.13,.17,.27,.09,.25-.14,.46-.33,.74-.43,.05,.08,.1,.15,.16,.22,.09,.21,.21,.42,.34,.61-.07,.13-.19,.2-.31,.27-.3,.19-.66,.3-.81,.68-.43-.4-.77-.88-1-1.41-.05-.13-.05-.29-.21-.37-.03-.63-.13-1.24,.08-1.86,.33-1.01,1-1.75,1.83-2.37,.21-.16,.47-.26,.63-.48,.18,.03,.27-.17,.45-.17,.03,.12,.07,.23,.1,.34h0Z"></path><path class="cls-23" d="M25.67,73.8c-.29,.28-.59,.57-.88,.85-.1-.73-.04-1.46-.06-2.19,0-.15,0-.32-.03-.47-.03-.25-.14-.38-.4-.26-.05,.03-.13,.04-.16-.07l.33-.18c.11-.06,.19-.15,.12-.27-.09-.15-.19-.03-.27,.02-.21,.1-.39,.28-.64,.22,.03-.08,.18-.04,.17-.16h.11s.04,0,.05,0c.39-.42,.93-.68,1.28-1.14,.13-.17,.27-.33,.4-.49,.03-.04,.08-.09,.14-.07,.07,.02,.06,.08,.08,.14,.07,.22,.05,.45,.05,.69-.29,.09-.59,.19-.88,.28-.06,.02-.11,.03-.17,.05-.15,.19-.12,.27,.16,.39,.19,.08,.19,.15,.03,.26-.04,.03-.12,0-.1,.09,.08,.06,.14,0,.21-.02,.35-.08,.42-.03,.43,.33,0,.27,0,.53,0,.81,0,.39-.07,.8,.04,1.18h0Z"></path><path class="cls-17" d="M25.67,73.8c-.11-.39-.03-.79-.05-1.18,0-.27,0-.53,0-.81,0-.36-.08-.42-.43-.33-.07,.02-.13,.08-.21,.02-.02-.09,.07-.07,.1-.09,.16-.1,.16-.18-.03-.26-.29-.12-.32-.21-.16-.39,.06,.29,.17,.37,.44,.31,.15-.03,.28-.06,.43-.09,.07,0,.16-.03,.21,.03,.05,.09-.04,.12-.09,.17-.03,.03-.07,.03-.05,.09,.1,.07,.19-.02,.27-.04,.2-.07,.3-.03,.3,.21,0,.61,.09,1.21,.05,1.82-.27,.19-.52,.38-.78,.56h0Z"></path><path class="cls-19" d="M25.13,69.42c.45-.45,.85-.93,1.22-1.45,.21-.12,.38,.03,.54,.09,.12,.05,.03,.14-.04,.18-.28-.03-.5,.06-.64,.33-.03,.07-.11,.12-.17,.18-.48,.53-.97,1.05-1.42,1.6-.16,.21-.42,.34-.5,.61-.03,0-.09,0-.1,.03-.2,.24-.49,.28-.76,.34-.09,.02-.21,.07-.24-.09,.19-.06,.37-.12,.56-.17,.13,0,.22-.04,.31-.15,.15-.19,.33-.37,.48-.57,.25-.33,.57-.59,.78-.95h0Zm-.06,1.28c.29-.09,.59-.19,.88-.28,.43-.02,.76,.25,1.14,.38,.08,.03,.1,.12,.02,.14-.16,.03-.34,.17-.5,.04-.31-.27-.64-.21-.99-.11-.11,.03-.23,.05-.35,.05-.15,0-.22-.06-.21-.21h0Z"></path><path class="cls-4" d="M24.12,70.97c.08-.27,.33-.41,.5-.61,.45-.56,.94-1.07,1.42-1.6,.05-.06,.13-.11,.17-.18,.14-.26,.36-.36,.64-.33-.27,.48-.79,.69-1.13,1.1-.43,.51-.89,.98-1.35,1.46-.08,.08-.14,.16-.26,.16h0Z"></path><path class="cls-4" d="M23.01,71.25c.03,.15,.15,.11,.24,.09,.27-.06,.57-.09,.76-.34,.02-.03,.07-.03,.1-.03,0,.15-.17,.19-.17,.33h-.11c-.11,.03-.24,.03-.33,.11h-.11s-.09,0-.11,.05h-.16c-.13-.06-.38,.16-.39-.16,.1,0,.18-.07,.28-.04h0Z"></path><path class="cls-10" d="M36.85,78.75c-.38-.05-.72-.21-1.07-.31-.12-.03-.24-.09-.37-.08v-.05s.08-.03,.11-.06h.11c.43,.17,.87,.29,1.33,.27,.13,0,.28,.02,.33-.14,.04-.17-.11-.23-.24-.29-.15-.08-.33-.13-.47-.21-.11-.06-.3-.09-.22-.3,.06,.02,.11,.03,.17,.05,.03,.22,.25,.21,.38,.26,.46,.15,.92,.33,1.36,.53,.15,.07,.36,.15,.28,.34-.07,.19-.27,.21-.47,.17-.34-.06-.69-.12-1.02-.23-.08-.02-.15-.03-.21,.04h0Z"></path><path class="cls-19" d="M38.12,77.92c.21,.12,.44,.15,.66,.21,.14,.03,.18,.1,.17,.23,0,.13,.03,.29-.2,.12-.27-.2-.61-.25-.91-.37-.45-.16-.9-.29-1.34-.48v-.16c.09,.03,.18,.07,.27,.1,.45,.11,.89,.23,1.34,.34h0Z"></path><path class="cls-11" d="M23.01,71.25c-.1-.03-.18,.05-.27,.05-.03,.02-.08,.03-.11,.05-.04,0-.09,0-.11,.05-.14,.03-.13,.12-.08,.21,.09,.15,.24,.19,.39,.16,.13-.03,.26-.03,.39-.03,.24,0,.32,.11,.19,.32-.33,.51-.19,1.05-.12,1.59,.09,.6,.08,1.19,.06,1.79,0,.12,.02,.34-.25,.31-.28-.04-.49-.21-.45-.39,.07-.34,.02-.68,.03-1.02,0-.06,0-.12-.02-.18-.02-.06-.05-.11-.1-.15-.05-.05-.1-.16-.2-.1-.11,.06-.06,.15-.02,.24-.1,.39-.03,.8-.11,1.19-.04,.22,.05,.34,.27,.37,.12,.11,.25,.18,.39,.24,.31,.12,.61,.27,.56,.69,0,.03,.04,.06,.06,.09-.04,.16-.09,.33-.13,.5-.35,.03-.63,.25-.94,.39-.39,.13-.78,.26-1.17,.39-.08,0-.15,0-.22,0-.06-.1-.05-.21-.06-.33-.02-.44,0-.88-.04-1.33-.04-.46-.12-.97,.28-1.35,.15-.15,.29-.31,.42-.48,.13-.18,.35-.32,.38-.54,.03-.21,.13-.36,.24-.51,.27-.37,.23-1.02-.09-1.33-.06-.05-.13-.15-.21-.05-.06,.08-.08,.2,.08,.23,.03,.17,.04,.35,.08,.51,.02,.08,.02,.14-.04,.2-.45,.48-.82,1.02-1.31,1.47-.07-.39-.19-.78-.05-1.17,.13-.37,.51-.58,.73-.97-.23,.08-.34,.21-.48,.32-.06,.04-.15,.12-.22,.05-.07-.06,.02-.14,.04-.2,.19-.43,.5-.77,.79-1.12,.04-.05,.24-.12,.02-.21,.02-.05,.06-.09,.11-.11,.14,0,.28-.02,.17-.22,.03-.15,.15-.21,.27-.28,.15,.02,.21-.08,.3-.16,.21-.21,.39-.44,.66-.59,.07-.03,.15-.12,.22-.04,.06,.06-.02,.14-.03,.21,0,.04-.06,.08-.08,.11-.1,.25-.33,.42-.47,.72,.26-.11,.32-.33,.48-.45,.06-.04,.1-.13,.18-.1,.1,.03,.06,.12,.08,.19,.06,.21,.05,.42,.05,.63-.16,.05-.35,.11-.53,.16h0Z"></path><path class="cls-22" d="M23.52,76.7s-.06-.06-.06-.09c.05-.42-.25-.57-.56-.69-.15-.06-.28-.13-.39-.24l.05-.93c0-.16,0-.33-.05-.49-.03-.1-.09-.13-.17-.13-.04-.09-.09-.18,.02-.24,.1-.05,.15,.05,.2,.1,.04,.04,.07,.09,.1,.15,.02,.06,.03,.12,.02,.18-.02,.34,.03,.68-.03,1.02-.04,.2,.16,.35,.45,.39,.27,.04,.24-.18,.25-.31,.02-.6,.03-1.19-.06-1.79-.08-.53-.21-1.07,.12-1.59,.13-.21,.05-.3-.19-.32-.13,0-.26,0-.39,.03-.15,.03-.3-.02-.39-.16-.05-.09-.06-.18,.08-.21-.02,.16,.09,.23,.21,.27,.09,.03,.16,.02,.18-.09h.22c.09,.09,.15,.07,.16-.05h.11c.09,.09,.1,.02,.11-.05h.16c.26,.06,.44-.13,.64-.22,.09-.04,.19-.18,.27-.02,.07,.12,0,.21-.12,.27l-.33,.18c.03,.1,.1,.09,.16,.07,.27-.11,.38,0,.4,.26,.02,.15,.02,.31,.03,.47,.02,.73-.04,1.46,.06,2.19-.27,.39-.59,.75-.83,1.17-.16,.28-.27,.6-.44,.88h0Z"></path><path class="cls-13" d="M20.89,79.31c.18-.13,.1-.26,0-.39,.05-.03,.11-.08,.16-.11,.43-.06,.83-.21,1.23-.39,.31-.11,.63-.23,.93-.34,0,.11,0,.23,0,.34-.75,.37-1.49,.74-2.33,.89h0Z"></path><path class="cls-18" d="M23.23,78.07c-.31,.11-.63,.23-.93,.34-.02-.29,.21-.54,.16-.83,.31-.14,.58-.36,.94-.39-.06,.28-.11,.58-.17,.87h0Z"></path><path class="cls-13" d="M20.68,79.36c.04-.07,.1-.05,.17-.05-.05,.06-.11,.05-.17,.05Z"></path><path class="cls-4" d="M26.23,79.69c.15-.38,.51-.49,.81-.68,.12-.08,.23-.15,.31-.27,.07,.06,.15,.11,.21,.17,.15,.19,.32,.35,.5,.5-.09,.22-.32,.27-.49,.38-.21,.15-.18,.25,0,.37,.26,.16,.51,.32,.77,.48,.3,.15,.59,.3,.89,.45,0,.19-.07,.3-.27,.28-.03-.04-.07-.05-.11-.05-.04-.07-.1-.05-.16-.05-.03-.04-.07-.05-.11-.05-.31-.15-.6-.36-.94-.45-.07-.09-.17-.11-.27-.11l-.05-.05c-.08-.03-.15-.08-.22-.11-.21-.3-.54-.45-.77-.72-.02-.03-.04-.06-.07-.09h0Z"></path><path class="cls-5" d="M27.29,80.58l.05,.05-.05-.05Z"></path><path class="cls-22" d="M21.63,71.19c.22,.09,.03,.15-.02,.21-.29,.36-.6,.69-.79,1.12-.03,.06-.11,.13-.04,.2,.08,.07,.16,0,.22-.05,.14-.1,.25-.23,.48-.32-.23,.39-.6,.6-.73,.97-.14,.39-.02,.78,.05,1.17-.04,.15-.15,.25-.24,.36-.03,.04-.1,.09-.07,.14,.06,.1,.19,.09,.29,.14,.06,.03,.1,0,.12-.08,.09-.3,.33-.5,.52-.73,.25-.33,.53-.63,.78-.96,.25-.33,.17-.84-.14-1.05-.15-.03-.14-.15-.08-.23,.07-.09,.14,0,.21,.05,.33,.31,.37,.96,.09,1.33-.11,.15-.21,.29-.24,.51-.03,.21-.25,.36-.38,.54-.12,.17-.27,.33-.42,.48-.41,.39-.33,.89-.28,1.35,.04,.45,.03,.88,.04,1.33,0,.11,0,.22,.06,.33-.41,.18-.86,.15-1.28,.22-.16,0-.33,0-.5,0-.02-1.1-.09-2.19-.06-3.29,0-.05,0-.11-.02-.16-.08-.39,0-.46,.36-.36,.18,.05,.23-.04,.27-.18,.1-.09,.24-.15,.25-.36l-.2,.16c-.09,.09-.19,.11-.29,.03-.11-.09-.06-.17-.02-.27,.03-.06,.03-.12,.04-.19,.04-.1,.17-.15,.16-.28l.05-.05c.09-.05,.16-.11,.17-.22,.25-.21,.42-.48,.62-.73,.29-.38,.65-.73,.99-1.1h0Z"></path><path class="cls-15" d="M20.62,68.07c.12-.03,.17-.18,.32-.17,.12,.08,.08,.2,.08,.3-.02,.93,.03,1.86,.06,2.8,0,.08,0,.15,.06,.2-.54,.66-1.13,1.28-1.73,1.89-.05-.15-.07-.31-.06-.46,.04-1-.05-2-.05-3,0-.08,.02-.17-.07-.22,.28-.41,.7-.69,1.05-1.03,.09-.1,.22-.2,.34-.3h0Z"></path><path class="cls-19" d="M19.4,73.09c.6-.61,1.19-1.23,1.73-1.89,.68-.71,1.34-1.44,1.99-2.18,.43-.47,.89-.93,1.28-1.44,.22-.26,.47-.43,.83-.28,.1,.04,.21,.08,.32,.13,.06,.03,.17,0,.16,.1-.02,.09-.11,.09-.2,.1-.51-.24-.82-.18-1.17,.33-.03,.07-.08,.14-.11,.21-.12,0-.18,.09-.25,.16-.35,.37-.71,.72-1.05,1.11-.25,.29-.52,.54-.77,.82-.83,.93-1.65,1.86-2.46,2.79-.27,.31-.57,.57-.75,.94-.27,0-.24-.14-.11-.29,.17-.21,.44-.36,.56-.63h0Z"></path><path class="cls-13" d="M18.95,74.03c.18-.37,.5-.63,.75-.94,.81-.94,1.63-1.87,2.46-2.79,.25-.28,.53-.54,.77-.82,.33-.39,.69-.74,1.05-1.11,.07-.07,.13-.16,.25-.16,.11,.12-.03,.16-.08,.21-.31,.32-.62,.63-.93,.93-.07,.07-.16,.13-.16,.24l-.81,.78s-.06,.06-.07,.1c-.01,.04-.02,.08-.01,.12-.12,.07-.24,.13-.27,.28-.15,0-.18,.1-.17,.22-.03,0-.05,.02-.07,.04-.02,.02-.03,.04-.04,.07-.33,.37-.69,.71-1,1.11-.2,.25-.36,.52-.62,.73-.15,0-.17,.1-.17,.22l-.05,.05c-.13,.06-.25,.14-.34,.25s-.16,.24-.2,.38c-.06,.27-.15,.19-.28,.08h0Z"></path><path class="cls-23" d="M19.61,73.58c-.02,.06-.02,.13-.04,.19-.04,.09-.09,.18,.02,.27,.11,.08,.21,.06,.29-.03,.05-.05,.11-.09,.2-.16-.02,.21-.15,.27-.25,.36-.19,0-.4-.03-.47-.21-.05-.19,.15-.3,.26-.42Z"></path><path class="cls-10" d="M19.78,78.19c.43-.08,.87-.04,1.28-.22,.08,0,.15,0,.22,0-.08,.27-.15,.56-.22,.83-.05,.03-.11,.08-.16,.11l-1.05,.15c-.25,.04-.3,0-.24-.25,.05-.2,.12-.4,.18-.62h0Z"></path><path class="cls-11" d="M37.79,72.66c.14,.15,.33,.09,.5,.15,0,.11-.08,.19-.14,.27-.51,.62-1.05,1.23-1.55,1.85-.26,.31-.55,.59-.74,.94h-.06c-.29-.43-.54-.89-.88-1.28l-.06-.06c0-.15-.15-.24-.18-.39,.04-.02,.09-.02,.12-.05,.29-.34,.6-.69,.87-1.05,.14-.19,.38-.3,.4-.57,.58-.02,1.14,.15,1.72,.19h0Z"></path><path class="cls-15" d="M35.84,75.86c.2-.35,.5-.63,.75-.94,.51-.63,1.04-1.23,1.55-1.85,.06-.08,.14-.15,.14-.27,.33,.09,.67,.18,1,.27,.14,.08,.28,.16,.45,.17,0,.28-.23,.43-.38,.62-.32,.41-.67,.8-1.01,1.19-.06,.07-.1,.16-.11,.25-.37,.11-.74,.24-1.08,.41-.41,.2-.82,.44-1.3,.15h0Z"></path><path class="cls-18" d="M36.06,72.47c-.02,.27-.27,.39-.4,.57-.27,.37-.57,.7-.87,1.05-.03,.03-.09,.03-.12,.05-.09-.13-.18-.15-.25,.03-.05,.12-.09,.24-.15,.35-.13,.21-.09,.36,.09,.52,.05,.19,.27,.29,.27,.5h-.12c-.15-.05-.3-.12-.45-.16-.48-.15-.95-.29-1.43-.44,0-.15,.09-.27,.17-.37,.43-.51,.88-1.01,1.3-1.54,.15-.19,.39-.33,.42-.6,.35,0,.7,0,1.05,0,.16,.02,.33-.03,.5,.05h0Z"></path><path class="cls-23" d="M36.78,77.58c-.09-.03-.18-.07-.27-.1-.06-.02-.11-.04-.17-.06-.15,0-.21,.04-.22,.21,0,.16,.14,.32,0,.47-.13,.15-.33,.06-.49,.14,0,0,0,.02-.02,.02h-.11c0-.09-.08-.1-.15-.11-.2-.02-.39-.09-.57-.16,.07-.09,.17-.04,.26-.06,.1,0,.21-.03,.24-.15,.03-.12-.07-.16-.16-.22-.12-.08-.29-.07-.33-.25,.15,.05,.32,.09,.47,.15,.15,.05,.33,.13,.46-.02,.13-.14,.07-.31,.03-.47l-.03-.1c.09,0,.15,.07,.21,.12,.25,.23,.29-.09,.42-.17,.16-.09,.05-.19-.03-.28-.08-.09-.24-.07-.26-.22,.4,.2,.78,.1,1.17-.05,.11-.04,.31-.16,.36,0,.05,.19-.13,.33-.31,.36-.39,.04-.63,.31-.97,.51,.17,0,.16,0,.45-.16,.12-.07,.28-.21,.39-.11,.12,.12-.09,.22-.15,.34-.06,.15-.24,.21-.21,.39h0Z"></path><path class="cls-19" d="M35.84,75.86c.47,.29,.88,.05,1.3-.15,.34-.17,.71-.29,1.08-.41,.23-.06,.46-.11,.69-.19,.2-.06,.21,.03,.19,.18-.02,.1-.05,.21-.09,.34-.21-.2-.41-.09-.61-.03-.52,.15-1.02,.32-1.5,.57-.33,.17-.89,.07-1.14-.19-.03-.03-.04-.08,0-.11h.06Z"></path><path class="cls-18" d="M34.73,75.42c0-.16-.1-.29-.15-.45-.03-.09-.02-.14,.07-.18,.09-.05,.14,0,.19,.05,.29,.33,.51,.72,.66,1.13,.08,.21-.2,.19-.22,.33-.08-.03-.13-.12-.22-.11-.06-.15-.21-.17-.33-.22,0-.12,.05-.23,.09-.34,.04-.1,.07-.19-.08-.21h0Z"></path><path class="cls-15" d="M35.29,76.3c.03-.15,.3-.12,.22-.33,.21,.08,.32,.31,.56,.33,.02,.15,.17,.15,.26,.22,.09,.09,.2,.18,.03,.28-.13,.08-.17,.39-.42,.17-.06-.05-.11-.12-.21-.12-.15-.18-.3-.37-.45-.56h0Z"></path><path class="cls-10" d="M34.5,75.53h.12v.11s-.03,.03-.05,.06h-.33c-.35-.13-.71-.22-1.07-.27-.12-.02-.3-.1-.38,.1-.28-.04-.54-.2-.83-.17-.06-.05-.12-.11-.17-.16,.12-.23,.32-.19,.51-.14,.63,.16,1.24,.33,1.87,.49,.12,.03,.23,.03,.34-.03Z"></path><path class="cls-19" d="M39,76.75c.14,.09,.23,.41,.15,.55-.03,.06-.09,.07-.14,.05-.08-.03-.21-.02-.22-.13,0-.22-.17-.24-.31-.28-.21-.07-.4-.16-.48-.4,.34,0,.65,.2,1,.21h0Z"></path><path class="cls-4" d="M34.34,75.02c-.16-.15-.21-.31-.09-.52,.07-.1,.11-.23,.15-.35,.07-.18,.15-.15,.25-.03,.03,.15,.17,.23,.18,.39-.26-.03-.39,.09-.39,.35,0,.09,0,.15-.1,.15Z"></path><path class="cls-15" d="M34.56,75.69s.03-.03,.05-.06c.15-.02,.1-.14,.11-.22,.14,.03,.11,.12,.09,.21-.03,.11-.09,.22-.09,.34-.22,.02-.15-.15-.16-.27h0Z"></path><path class="cls-4" d="M34.84,74.52l.06,.06s-.04-.04-.06-.06h0Z"></path><path class="cls-22" d="M22.18,70.58s0-.08,.01-.12c.01-.04,.04-.07,.07-.1l.81-.78c.13,0,.19-.11,.27-.18,.41-.38,.77-.82,1.23-1.17,.08-.06,.16-.14,.24-.07,.08,.07,0,.18-.04,.25-.1,.17-.22,.33-.38,.56,.19-.03,.25-.15,.32-.24,.06-.08,.11-.2,.23-.17,.13,.03,.09,.16,.09,.27,0,.14,0,.27,0,.42,0,.09,0,.17,.12,.18-.21,.36-.52,.63-.77,.95-.15,.2-.33,.37-.48,.57-.09,.1-.17,.15-.31,.15,0-.21,0-.42-.05-.63-.02-.07,.03-.16-.08-.19-.09-.02-.13,.06-.18,.1-.16,.12-.21,.34-.48,.45,.15-.3,.38-.47,.47-.72,.02-.04,.06-.08,.08-.11,.02-.07,.09-.15,.03-.21-.08-.08-.15,0-.22,.04-.26,.15-.45,.39-.66,.59-.09,.08-.17,.18-.31,.16h0Z"></path><path class="cls-23" d="M25.23,67.31c-.36-.15-.61,.03-.83,.28-.07-.18-.05-.36-.06-.55,0-.34,.05-.69-.05-1.01,.29-.12,.59-.21,.89-.28,.11,.51,.03,1.04,.05,1.56h0Z"></path><path class="cls-13" d="M24.34,67.98c.34-.52,.66-.58,1.17-.33,0,.1-.04,.22-.15,.13-.33-.27-.53-.03-.76,.15-.07,.06-.13,.17-.25,.06h0Z"></path><path class="cls-15" d="M24.29,66.03c.1,.33,.04,.68,.05,1.01,0,.18,0,.37,.06,.55-.39,.52-.85,.96-1.28,1.44-.07-.32-.04-.64-.06-.96-.02-.5,.05-.99-.05-1.48,.25-.19,.55-.27,.83-.39,.15-.07,.29-.12,.45-.17h0Z"></path><path class="cls-23" d="M31.79,75.19c.06,.05,.11,.1,.17,.16-.09,.22-.35,.35-.39,.61-.21-.06-.43-.1-.63-.18-.15-.06-.23,0-.27,.13-.07,.18-.15,.36-.25,.52-.18,.28-.17,.31,.16,.39l.1,.03,.06,.06s0,.08-.03,.1c-.51,.62-1.05,1.23-1.55,1.85-.23,.28-.53,.51-.63,.88-.15-.11-.3-.22-.45-.33-.19-.14-.35-.31-.5-.5,.14-.39,.47-.65,.72-.97,.63-.76,1.27-1.5,1.91-2.26,.67-.8,1.35-1.59,2-2.39,.19-.23,.44-.43,.54-.73,.58-.12,1.18-.18,1.77-.16-.04,.27-.28,.41-.42,.6-.42,.52-.87,1.03-1.3,1.54-.09,.1-.19,.21-.17,.37-.26-.03-.5-.12-.75-.2-.11-.03-.21-.04-.26,.07-.06,.11-.21,.19-.16,.33,.03,.09,.18,.08,.27,.08,.02-.02,.03-.02,.05-.02h0Z"></path><path class="cls-10" d="M27,78.14c-.05-.08-.11-.15-.16-.22-.4-1.16-.09-2.15,.71-3.03,1.02-1.09,2.34-1.64,3.74-2.04l.15-.05c.02,.11-.06,.19-.13,.27-.16,.18-.32,.36-.47,.54-.53,.63-1.05,1.27-1.59,1.9-.46,.56-.92,1.12-1.41,1.66-.27,.33-.49,.7-.85,.97Z"></path><path class="cls-17" d="M27.01,78.14c.35-.26,.57-.64,.87-.96,.48-.54,.93-1.11,1.41-1.66,.53-.63,1.05-1.27,1.59-1.9,.15-.18,.31-.36,.47-.54,.07-.08,.14-.15,.13-.27,.43-.07,.84-.21,1.28-.23-.1,.3-.35,.5-.54,.73-.66,.81-1.33,1.59-2,2.39-.63,.75-1.28,1.49-1.91,2.26-.26,.31-.58,.57-.72,.97-.07-.06-.15-.11-.21-.17-.14-.19-.26-.39-.35-.61h0Z"></path><path class="cls-11" d="M23.01,66.58c.1,.49,.04,.99,.05,1.48,0,.32-.02,.64,.06,.96-.65,.74-1.31,1.46-1.99,2.18-.07-.05-.06-.13-.06-.2-.03-.93-.08-1.86-.06-2.79,0-.1,.04-.22-.08-.3,.17-.26,.45-.36,.69-.54,.22-.17,.48-.31,.72-.45,.22-.1,.42-.27,.67-.33h0Z"></path><path class="cls-13" d="M28.68,81.25c.06,0,.13,0,.16,.05-.06,0-.12,.02-.16-.05h0Zm.16,.06s.09,0,.11,.05c-.04,0-.08,0-.11-.05Zm-.27-.11s.09,0,.11,.05c-.05,0-.09,0-.11-.05Z"></path><path class="cls-15" d="M35.39,78.31v.05c-.05,.28-.29,.44-.45,.64-.54,.68-1.11,1.34-1.66,2.01-.04,.04-.06,.09-.08,.14-.02,.05-.02,.11-.02,.16-.54-.09-1.07-.19-1.61-.27,0-.05,0-.11,.02-.16,.02-.05,.05-.1,.09-.14,.63-.75,1.28-1.49,1.9-2.25,.15-.17,.34-.32,.38-.57,.13-.02,.25,.04,.37,.08,.36,.1,.7,.26,1.07,.31h0Z"></path><path class="cls-14" d="M31.56,81.02c.54,.09,1.07,.19,1.61,.27,.19,0,.37,.09,.56,.06,0,.14-.12,.18-.22,.25-.15,.11-.37,.15-.45,.36-.78-.05-1.56-.19-2.31-.43-.04-.02-.09-.02-.14-.03-.02-.19,.16-.21,.27-.3,.12-.09,.31-.11,.34-.31,.11,.05,.22,.09,.33,.12h0Z"></path><path class="cls-15" d="M33.06,81.97c.08-.21,.29-.25,.45-.36,.09-.07,.21-.11,.22-.25,.42-.04,.82,.07,1.24,.06,.08,0,.16,0,.1,.12-.09,.16-.93,.58-1.13,.54-.27-.07-.55-.03-.82-.04-.03-.03-.04-.05-.06-.07h0Z"></path><path class="cls-17" d="M29.23,81.08c-.3-.15-.59-.3-.89-.45-.02-.14,.06-.19,.16-.26,.15-.09,.35-.14,.39-.36,.23,0,.37,.25,.61,.22,.22,.21,.51,.27,.78,.39-.03,.21-.23,.25-.37,.34-.09,.06-.19,.09-.19,.21-.18,.04-.32-.12-.49-.1Z"></path><path class="cls-15" d="M29.73,81.19c0-.13,.11-.15,.19-.21,.14-.09,.33-.14,.37-.34,.32,.09,.63,.19,.94,.27-.03,.2-.22,.21-.34,.31-.11,.09-.28,.1-.27,.3-.3-.09-.62-.16-.89-.33h0Z"></path><path class="cls-10" d="M23.68,71.47h-.16v-.06c.09-.09,.22-.08,.33-.11,0,.12-.14,.09-.17,.17Zm-.56,.11h-.22c-.15,0-.33,.03-.27-.22,.03-.02,.08-.03,.11-.05,.02,.33,.26,.1,.39,.16v.11Z"></path><path class="cls-23" d="M23.12,71.58v-.11h.16v.06c-.02,.11-.08,.14-.16,.05Zm.38-.17v.06c0,.07-.03,.14-.11,.05v-.11h.11Z"></path><path class="cls-10" d="M23.39,71.41v.11h-.11v-.06s.07-.05,.11-.05Z"></path><path class="cls-17" d="M35.62,78.24s0-.02,.02-.02c.15-.08,.36,.02,.49-.14,.14-.15-.02-.32,0-.47,0-.15,.09-.21,.22-.21v.16c-.08,.21,.11,.23,.22,.3,.15,.09,.32,.14,.47,.21,.12,.06,.28,.12,.24,.29-.04,.15-.2,.14-.33,.14-.46,.02-.9-.1-1.33-.27h0Zm-.22,.06c-.38-.05-.72-.21-1.07-.31-.12-.03-.24-.09-.37-.08v-.11c.19,.03,.37,.08,.56,.11,.04,.07,.1,.05,.16,.05h.11c.18,.08,.37,.15,.57,.16,.08,0,.15,.02,.15,.11-.03,.03-.08,.04-.11,.06h0Z"></path><path class="cls-13" d="M36.33,77.58v-.16c.06,.02,.11,.04,.17,.06v.16c-.06-.02-.11-.04-.17-.06h0Z"></path><path class="cls-23" d="M21.06,78.8c.08-.27,.15-.56,.22-.83,.39-.13,.78-.26,1.17-.39,.04,.3-.18,.54-.16,.83-.39,.17-.8,.33-1.23,.39h0Z"></path><path class="cls-4" d="M22.06,72.31c.31,.21,.39,.72,.14,1.05-.25,.33-.53,.63-.78,.96-.18,.24-.43,.43-.52,.73-.02,.07-.07,.09-.12,.08-.1-.04-.23-.03-.29-.14-.03-.05,.03-.09,.07-.14,.09-.11,.2-.21,.24-.36,.48-.45,.87-.99,1.31-1.47,.06-.06,.06-.12,.04-.2-.04-.18-.06-.35-.09-.52h0Z"></path><path class="cls-13" d="M22.35,74.13c.09,0,.15,.03,.17,.13,.04,.16,.05,.33,.05,.49-.02,.32-.03,.63-.05,.93-.22-.03-.32-.14-.27-.37,.07-.38,0-.79,.1-1.18h0Z"></path><path class="cls-23" d="M22.61,71.36c-.04,.25,.13,.21,.27,.22-.02,.12-.09,.12-.18,.09-.13-.04-.23-.1-.21-.27,.03-.04,.08-.05,.12-.05h0Z"></path><path class="cls-22" d="M21.73,71.08c0-.12,.03-.21,.17-.22,.11,.21-.03,.21-.17,.22Z"></path><path class="cls-13" d="M28.9,80.03c-.03,.22-.24,.27-.39,.36-.1,.07-.19,.12-.16,.26-.26-.16-.52-.31-.77-.48-.18-.12-.21-.22,0-.37,.17-.11,.4-.15,.49-.38,.15,.11,.3,.22,.45,.33,.12,.09,.27,.15,.38,.28h0Z"></path><path class="cls-17" d="M19.84,73.25c0-.12,.03-.22,.17-.22,0,.11-.08,.17-.17,.22h0Z"></path><path class="cls-19" d="M31.79,75.19h-.05c-.1,0-.24,.02-.27-.08-.05-.13,.1-.22,.16-.33,.06-.11,.15-.09,.26-.07,.25,.08,.48,.17,.75,.2,.48,.15,.96,.29,1.43,.44,.15,.05,.3,.11,.45,.16-.11,.06-.22,.05-.34,.03-.62-.17-1.24-.33-1.87-.49-.21-.05-.4-.09-.51,.14h0Z"></path><path class="cls-18" d="M34.5,77.91c-.19-.03-.37-.08-.56-.11-.04-.12-.16-.13-.25-.15-.54-.12-1.06-.29-1.57-.51-.09-.04-.19-.09-.28,0-.08-.03-.15-.08-.22-.11-.02-.15-.18-.14-.25-.22-.05-.06-.15-.1-.1-.2,.03-.08,.12-.06,.2-.08,.21-.04,.4,.08,.61,0h.11c0,.07,.03,.14,.11,.05,.23,.07,.45,.15,.69,.2,.63,.1,1.19,.41,1.82,.52,.04,.17,.21,.17,.33,.25,.09,.05,.19,.09,.16,.22-.03,.12-.14,.13-.24,.15-.09,0-.19-.03-.26,.06h-.11c-.04-.13-.09-.15-.19-.07Z"></path><path class="cls-17" d="M34.79,77.3c-.63-.11-1.19-.42-1.82-.52-.23-.04-.45-.13-.69-.2-.03-.04-.07-.05-.11-.05h-.11c-.28-.12-.58-.2-.89-.22-.2-.02-.27,.13-.32,.28-.04,.17,.09,.22,.21,.27,.18,.06,.37,.12,.55,.17,.08,.03,.15,.08,.22,.11v.06c-.39-.03-.73-.23-1.11-.27-.02-.02-.04-.04-.06-.06,0-.49,.19-.87,.86-.65,1.14,.35,2.31,.62,3.44,1.02,.12,.04,.24,.09,.38,.09,.11,0,.18-.03,.16-.16-.09-.29-.24-.56-.44-.79v-.17c.09,0,.15,.08,.22,.11,.15,.19,.3,.37,.45,.56l.03,.1c.03,.16,.09,.33-.03,.47-.14,.15-.31,.07-.46,.02-.16-.05-.32-.1-.47-.15h0Z"></path><path class="cls-23" d="M35.06,76.19v.06c-.08-.05-.17-.09-.27-.13-.27-.09-.55-.11-.79-.27,.03-.12,.16-.09,.22-.17h.33c.02,.12-.06,.29,.16,.27,.13,.07,.28,.08,.33,.23h0Z"></path><path class="cls-18" d="M31.56,75.97c.04-.27,.29-.39,.39-.61,.29-.03,.55,.13,.83,.17,.14,.09,.32,.05,.45,.17,0,.09-.08,.14-.12,.21-.1,.15-.27,.27-.33,.45-.4-.14-.81-.27-1.22-.39h0Z"></path><path class="cls-17" d="M33.23,75.69c-.13-.12-.31-.09-.45-.17,.08-.21,.26-.11,.38-.1,.37,.05,.72,.15,1.07,.27-.05,.08-.2,.05-.22,.17-.26-.05-.52-.1-.78-.16h0Z"></path><path class="cls-18" d="M30.73,76.92c.39,.05,.73,.25,1.11,.27,.05,.03,.11,.08,.16,.11-.83,.99-1.67,1.96-2.5,2.95-.24,.02-.38-.22-.61-.22-.1-.14-.26-.2-.39-.28,.11-.37,.41-.6,.63-.88,.51-.63,1.04-1.23,1.55-1.85,.03-.02,.03-.06,.03-.09h0Z"></path><path class="cls-4" d="M31.56,75.97c.41,.13,.81,.26,1.23,.39,.63,.19,1.26,.37,1.89,.56,.27,.08,.56,.16,.83,.24,0,.12-.05,.15-.16,.16-.14,0-.26-.04-.38-.09-1.12-.41-2.3-.67-3.44-1.02-.67-.21-.86,.17-.86,.65l-.1-.03c-.33-.09-.33-.11-.16-.39,.1-.16,.18-.34,.25-.52,.05-.14,.12-.18,.27-.13,.21,.08,.42,.12,.63,.18h0Z"></path><path class="cls-11" d="M29.5,80.25c.83-.98,1.67-1.96,2.5-2.95,.12,0,.23,.05,.34,.09,.53,.15,1.07,.31,1.6,.47v.05c-.03,.25-.23,.39-.38,.57-.63,.75-1.27,1.5-1.9,2.25-.04,.04-.07,.09-.09,.14-.02,.05-.03,.11-.02,.16-.11-.03-.22-.08-.33-.11-.31-.09-.63-.19-.94-.27-.27-.12-.56-.18-.78-.39h0Z"></path><path class="cls-23" d="M33.96,77.86c-.53-.15-1.07-.31-1.6-.47-.11-.03-.22-.09-.34-.09-.05-.03-.11-.08-.16-.11v-.06c.1-.08,.2-.03,.28,0,.51,.22,1.03,.39,1.57,.51,.09,.02,.21,.03,.25,.15,0,.02,0,.05,0,.07h0Zm.55,.05c.09-.09,.15-.06,.16,.05-.05,0-.12,.02-.16-.05Zm-2.89-.88c-.18-.06-.37-.11-.55-.17-.12-.04-.27-.09-.21-.27,.04-.15,.12-.3,.32-.28,.31,.03,.61,.1,.89,.22-.21,.08-.4-.04-.61,0-.07,.02-.15,0-.2,.08-.04,.1,.06,.14,.1,.2,.08,.09,.25,.07,.26,.22h0Zm.56-.5s.09,0,.11,.05c-.09,.09-.09,.02-.11-.05Z"></path><path class="cls-11" d="M34.68,76.91c-.63-.19-1.26-.37-1.89-.56,.06-.19,.22-.3,.33-.45,.04-.07,.12-.11,.12-.21,.26,.06,.52,.11,.78,.17,.24,.15,.53,.17,.79,.27,.09,.03,.18,.08,.27,.13v.11c-.12,.19-.32,.32-.39,.54Z"></path><path class="cls-18" d="M34.68,76.91c.08-.22,.28-.35,.39-.55,.21,.23,.36,.49,.44,.79-.27-.08-.56-.16-.83-.24Z"></path><path class="cls-12" d="M60.18,74.33l4.19,6.25c.26,.39-.03,.9-.51,.9h-2.35c-.1,0-.2-.02-.29-.07-.09-.05-.16-.11-.22-.19l-3.21-4.7c-.05-.07-.11-.13-.19-.17s-.16-.07-.24-.08c-.09-.01-.17,0-.25,.02-.08,.02-.16,.07-.22,.12l-1.69,1.43c-.1,.08-.17,.19-.19,.32l-.59,2.84c-.03,.14-.1,.26-.21,.34-.11,.09-.24,.13-.38,.13h-2.14c-.39,0-.66-.33-.59-.7l2.69-12.93c.06-.28,.3-.47,.59-.47h2.12c.39,0,.66,.33,.59,.7l-.84,4.06c-.12,.54,.56,.92,1,.56l6.07-5.17c.11-.1,.26-.15,.4-.15h2.27c.56,0,.82,.67,.4,1.03l-6.09,5.19c-.11,.09-.18,.22-.2,.36-.02,.14,.01,.29,.09,.4h0Zm13.7,0l4.19,6.25c.26,.39-.03,.9-.51,.9h-2.37c-.1,0-.2-.02-.29-.07s-.16-.11-.22-.19l-3.21-4.69c-.05-.07-.11-.13-.19-.17-.07-.04-.16-.07-.24-.08-.09-.01-.17,0-.25,.02-.08,.02-.16,.07-.22,.12l-1.69,1.43c-.1,.08-.17,.19-.19,.32l-.59,2.84c-.03,.14-.1,.26-.21,.34-.11,.09-.24,.13-.38,.13h-2.12c-.39,0-.66-.33-.59-.7l2.69-12.93c.06-.28,.3-.47,.59-.47h2.12c.39,0,.66,.33,.59,.7l-.84,4.06c-.12,.54,.56,.92,1,.56l6.06-5.17c.11-.1,.26-.15,.4-.15h2.27c.56,0,.82,.67,.4,1.03l-6.09,5.17c-.11,.09-.18,.22-.2,.36-.02,.14,.01,.29,.09,.4h0Zm6.79-3.69h2.57c.2,0,.36,.18,.32,.38l-2.11,10.21c-.03,.15-.16,.25-.32,.25h-2.57c-.2,0-.36-.18-.32-.38l2.11-10.21c.03-.15,.16-.25,.32-.25h0Zm.53-1.99c-.36-.32-.53-.7-.53-1.15,0-.54,.2-.99,.59-1.34,.4-.36,.91-.53,1.56-.53,.58,0,1.04,.15,1.39,.46,.36,.31,.53,.68,.53,1.11,0,.58-.2,1.04-.61,1.4-.4,.36-.92,.53-1.57,.53-.55-.01-1.01-.17-1.36-.49h0Zm14.79,2.32l-2.12,10.28c-.02,.06-.05,.12-.11,.16-.05,.04-.12,.06-.18,.06h-2.5s-.08,0-.12-.03c-.04-.02-.07-.04-.1-.07-.03-.03-.05-.07-.06-.11-.01-.04-.01-.08,0-.12,0-.06,0-.11-.02-.17-.02-.05-.06-.1-.11-.13-.05-.03-.1-.05-.16-.05-.06,0-.11,.02-.16,.05-.81,.53-1.76,.78-2.86,.78-.88,0-1.69-.19-2.43-.58-.73-.38-1.34-.97-1.76-1.68-.43-.74-.66-1.6-.66-2.59,0-1.2,.27-2.27,.82-3.23,.53-.94,1.31-1.72,2.25-2.25,.95-.55,2.03-.83,3.13-.82,1.46,0,2.56,.39,3.28,1.15,.16,.17,.45,.08,.51-.14l.13-.63c.03-.14,.14-.22,.29-.22h2.66c.19,0,.32,.15,.29,.33h0Zm-5.79,7.61c.5-.3,.91-.74,1.17-1.27,.27-.54,.42-1.15,.42-1.85,0-.74-.23-1.32-.68-1.75-.45-.43-1.08-.64-1.89-.64-.64,0-1.21,.15-1.72,.46-.5,.3-.91,.74-1.17,1.27-.27,.54-.42,1.15-.42,1.85,0,.74,.23,1.32,.68,1.75,.45,.43,1.08,.64,1.89,.64,.65-.01,1.21-.15,1.72-.46h0Z"></path><path class="cls-7" d="M108.34,68.76c1,.78,1.5,1.85,1.5,3.23,0,1.18-.29,2.21-.87,3.09-.58,.88-1.4,1.56-2.47,2.03-1.07,.47-2.33,.71-3.77,.71h-2.4c-.51,0-.94,.35-1.04,.82l-.46,2.24c-.1,.47-.53,.82-1.04,.82h-1.24c-.66,0-1.17-.58-1.04-1.23l2.5-12.04c.1-.47,.53-.82,1.04-.82h5.05c1.82,0,3.23,.38,4.23,1.15h0Zm-2.86,5.65c.61-.5,.92-1.21,.92-2.13,0-.67-.23-1.17-.71-1.52-.46-.33-1.14-.5-2.02-.5h-1.79c-.51,0-.94,.35-1.04,.82l-.59,2.85c-.13,.63,.38,1.22,1.04,1.22h1.57c1.14,0,2.01-.25,2.61-.75Zm17.03-3.21l-2.12,10.26c-.02,.06-.05,.12-.11,.16-.05,.04-.12,.06-.18,.06h-2.5s-.08,0-.12-.03c-.04-.02-.07-.04-.1-.07-.03-.03-.05-.07-.06-.11s-.01-.08,0-.12c0-.06,0-.11-.02-.17-.02-.05-.06-.1-.11-.13-.05-.03-.1-.05-.16-.05-.06,0-.11,.02-.16,.05-.81,.53-1.78,.78-2.86,.78-.88,0-1.69-.19-2.43-.58-.73-.38-1.35-.97-1.76-1.68-.43-.74-.67-1.6-.67-2.59,0-1.2,.27-2.27,.82-3.23,.53-.94,1.31-1.72,2.25-2.25,.95-.55,2.03-.83,3.13-.82,1.46,0,2.56,.39,3.28,1.15,.16,.17,.45,.08,.51-.14l.13-.63c.03-.14,.14-.22,.29-.22h2.66c.19,.01,.32,.18,.29,.35h0Zm-5.79,7.61c.5-.3,.9-.73,1.17-1.25,.27-.54,.42-1.15,.42-1.85,0-.74-.23-1.32-.68-1.75-.45-.43-1.08-.64-1.89-.64-.64,0-1.21,.15-1.72,.46-.5,.3-.9,.73-1.17,1.25-.27,.54-.42,1.15-.42,1.85,0,.74,.23,1.32,.68,1.75,.45,.43,1.08,.64,1.89,.64,.65,0,1.21-.15,1.72-.46Zm17.86-7.94c.42,0,.68,.45,.45,.78l-6.97,10.78c-.81,1.27-1.59,2.13-2.35,2.62-.77,.49-1.69,.72-2.79,.72-.59,0-1.16-.08-1.72-.26-.33-.11-.63-.22-.88-.38-.06-.03-.11-.08-.16-.14-.04-.06-.07-.12-.09-.19-.02-.07-.02-.14,0-.21,.01-.07,.04-.13,.08-.19l.92-1.39c.08-.11,.19-.19,.33-.22,.13-.03,.27-.01,.39,.06,.4,.25,.88,.36,1.39,.36,.42,0,.78-.1,1.08-.31,.3-.19,.62-.54,.94-1.01h.01c.06-.13,.09-.25,.06-.38l-2.41-10.01c-.07-.32,.17-.63,.52-.63h2.17c.25,0,.46,.17,.52,.4l1.3,5.72c.1,.44,.72,.56,.97,.15l3.84-6.04c.05-.07,.12-.14,.19-.18,.08-.04,.17-.07,.25-.07h1.96Z"></path></g></svg>