<svg xmlns="http://www.w3.org/2000/svg" id="Layer_1" data-name="Layer 1" viewBox="0 0 150 150"><defs><style>      .cls-1 {        fill: #fff;      }      .cls-2 {        fill: #333;      }    </style></defs><rect class="cls-1" width="150" height="150" rx="40" ry="40"></rect><g><path class="cls-2" d="M34.2,71.16c-.43,.79-1.1,1.42-2.01,1.91-.91,.48-2.06,.72-3.44,.72h-2.83v6.47h-3.38v-16.86h6.21c1.3,0,2.42,.23,3.33,.68,.92,.45,1.61,1.07,2.07,1.86s.69,1.68,.69,2.68c0,.9-.21,1.75-.64,2.54Zm-3.52-.74c.45-.43,.68-1.03,.68-1.8,0-1.64-.92-2.46-2.75-2.46h-2.68v4.9h2.68c.93,0,1.63-.21,2.08-.64Z"></path><path class="cls-2" d="M37.17,69.93c.54-1.05,1.27-1.85,2.2-2.42,.93-.56,1.96-.85,3.1-.85,1,0,1.87,.2,2.62,.6,.75,.4,1.35,.91,1.8,1.52v-1.91h3.41v13.38h-3.41v-1.96c-.43,.63-1.03,1.15-1.8,1.56-.77,.41-1.65,.62-2.65,.62-1.13,0-2.15-.29-3.08-.87-.93-.58-1.66-1.4-2.2-2.45-.54-1.05-.81-2.27-.81-3.64s.27-2.55,.81-3.6Zm9.24,1.53c-.32-.59-.76-1.04-1.3-1.35-.55-.31-1.14-.47-1.76-.47s-1.21,.15-1.74,.46c-.53,.31-.96,.75-1.29,1.34-.33,.59-.5,1.28-.5,2.09s.17,1.51,.5,2.11c.33,.6,.76,1.07,1.3,1.39,.54,.32,1.11,.48,1.73,.48s1.22-.16,1.76-.47c.55-.31,.98-.76,1.3-1.35,.32-.59,.48-1.29,.48-2.11s-.16-1.53-.48-2.11Z"></path><path class="cls-2" d="M66.41,66.88l-8.29,19.71h-3.6l2.9-6.67-5.36-13.05h3.79l3.45,9.35,3.5-9.35h3.6Z"></path><path class="cls-2" d="M71.61,77.58h5.56v2.68h-8.94v-16.86h3.38v14.18Z"></path><path class="cls-2" d="M79.25,69.93c.54-1.05,1.27-1.85,2.2-2.42,.93-.56,1.96-.85,3.1-.85,1,0,1.87,.2,2.62,.6,.75,.4,1.35,.91,1.8,1.52v-1.91h3.41v13.38h-3.41v-1.96c-.43,.63-1.03,1.15-1.8,1.56-.77,.41-1.65,.62-2.65,.62-1.13,0-2.15-.29-3.08-.87-.93-.58-1.66-1.4-2.2-2.45-.54-1.05-.81-2.27-.81-3.64s.27-2.55,.81-3.6Zm9.24,1.53c-.32-.59-.76-1.04-1.3-1.35-.55-.31-1.14-.47-1.76-.47s-1.21,.15-1.74,.46c-.53,.31-.96,.75-1.29,1.34-.33,.59-.5,1.28-.5,2.09s.17,1.51,.5,2.11c.33,.6,.76,1.07,1.3,1.39,.54,.32,1.11,.48,1.73,.48s1.22-.16,1.76-.47c.55-.31,.98-.76,1.3-1.35,.32-.59,.48-1.29,.48-2.11s-.16-1.53-.48-2.11Z"></path><path class="cls-2" d="M99.63,69.66v6.47c0,.45,.11,.78,.33,.98,.22,.2,.58,.3,1.1,.3h1.57v2.85h-2.13c-2.85,0-4.28-1.38-4.28-4.16v-6.45h-1.59v-2.78h1.59v-3.31h3.41v3.31h3v2.78h-3Z"></path><path class="cls-2" d="M117.41,74.59h-9.78c.08,.97,.42,1.72,1.01,2.27s1.33,.82,2.2,.82c1.26,0,2.15-.54,2.68-1.62h3.65c-.39,1.29-1.13,2.35-2.22,3.18-1.1,.83-2.44,1.24-4.03,1.24-1.29,0-2.44-.29-3.47-.86s-1.82-1.38-2.39-2.43-.86-2.25-.86-3.62,.28-2.6,.85-3.65,1.35-1.85,2.37-2.42c1.01-.56,2.18-.85,3.5-.85s2.41,.27,3.42,.82c1.01,.55,1.79,1.33,2.34,2.33,.56,1.01,.83,2.16,.83,3.47,0,.48-.03,.92-.1,1.3Zm-3.41-2.27c-.02-.87-.33-1.57-.94-2.09-.61-.52-1.36-.78-2.25-.78-.84,0-1.54,.25-2.11,.76-.57,.51-.92,1.21-1.05,2.11h6.35Z"></path><path class="cls-2" d="M125.06,67.29c.7-.4,1.5-.6,2.4-.6v3.55h-.89c-1.06,0-1.86,.25-2.4,.75-.54,.5-.81,1.37-.81,2.61v6.67h-3.38v-13.38h3.38v2.08c.44-.71,1-1.26,1.7-1.67Z"></path></g></svg>