<svg xmlns="http://www.w3.org/2000/svg" id="Layer_1" data-name="Layer 1" viewBox="0 0 150 150"><defs><style>      .cls-1 {        fill: #fff;      }      .cls-2 {        fill: #e2136e;      }      .cls-3 {        fill: #9e1638;      }      .cls-4 {        fill: #d12053;      }    </style></defs><rect class="cls-1" width="150" height="150" rx="40" ry="40"></rect><g><path id="polygon161" class="cls-4" d="M99.17,78.8l-35.05-5.49,4.65,20.89,30.4-15.39Z"></path><path id="polygon163" class="cls-2" d="M99.17,78.8l-26.41-36.69-8.63,31.21,35.04,5.49Z"></path><path id="polygon165" class="cls-4" d="M63.31,72.89l-27.67-35.37,36.24,4.33-8.57,31.04Z"></path><path id="polygon167" class="cls-3" d="M50.71,58.11l-15.37-14.48h4.04l11.32,14.48Z"></path><path id="polygon169" class="cls-4" d="M106.65,60.96l-6.5,17.64-10.54-14.58,17.05-3.06Z"></path><path id="polygon171" class="cls-2" d="M72.86,93.13l25.52-10.25,1.07-3.26-26.59,13.51Z"></path><path id="polygon173" class="cls-3" d="M52.45,112.48l10.93-38.35,5.55,24.95-16.48,13.4Z"></path><path id="polygon175" class="cls-2" d="M107.67,61.1l-2.68,7.28,9.68-.16-6.99-7.12Z"></path></g></svg>