<svg xmlns="http://www.w3.org/2000/svg" id="Layer_1" data-name="Layer 1" viewBox="0 0 150 150"><defs><style>      .cls-1 {        fill: #fff;      }      .cls-2 {        fill: #fbbc04;      }      .cls-3 {        fill: #4285f4;      }      .cls-4 {        fill: #34a853;      }      .cls-5 {        fill: #5f6368;      }      .cls-6 {        fill: #ea4335;      }    </style></defs><rect class="cls-1" width="150" height="150" rx="40" ry="40"></rect><g><path class="cls-5" d="M72.14,74.48v12.14h-3.92v-30.04h10.19c2.48,0,4.83,.91,6.66,2.61,1.83,1.57,2.74,3.92,2.74,6.4s-.91,4.7-2.74,6.4c-1.83,1.7-4.05,2.61-6.66,2.61l-6.27-.13h0Zm0-14.23v10.45h6.53c1.44,0,2.87-.52,3.79-1.57,2.09-1.96,2.09-5.22,.13-7.18l-.13-.13c-1.04-1.04-2.35-1.7-3.79-1.57h-6.53Z"></path><path class="cls-5" d="M96.82,65.47c2.87,0,5.09,.78,6.79,2.35s2.48,3.66,2.48,6.27v12.54h-3.66v-2.87h-.13c-1.57,2.35-3.79,3.53-6.4,3.53-2.22,0-4.18-.65-5.75-1.96-1.44-1.31-2.35-3.13-2.35-5.09,0-2.09,.78-3.79,2.35-5.09s3.79-1.83,6.4-1.83c2.35,0,4.18,.39,5.62,1.31v-.91c0-1.31-.52-2.61-1.57-3.4-1.04-.91-2.35-1.44-3.79-1.44-2.22,0-3.92,.91-5.09,2.74l-3.4-2.09c2.09-2.74,4.83-4.05,8.49-4.05Zm-4.96,14.89c0,1.04,.52,1.96,1.31,2.48,.91,.65,1.96,1.04,3,1.04,1.57,0,3.13-.65,4.31-1.83,1.31-1.18,1.96-2.61,1.96-4.18-1.18-.91-2.87-1.44-5.09-1.44-1.57,0-2.87,.39-3.92,1.18-1.04,.65-1.57,1.57-1.57,2.74Z"></path><path class="cls-5" d="M127.25,66.12l-12.93,29.64h-3.92l4.83-10.32-8.49-19.2h4.18l6.14,14.76h.13l6.01-14.76h4.05v-.13Z"></path><path class="cls-3" d="M56.6,71.87c0-1.18-.13-2.35-.26-3.53h-16.32v6.66h9.27c-.39,2.09-1.57,4.05-3.4,5.22v4.31h5.62c3.26-3,5.09-7.44,5.09-12.67Z"></path><path class="cls-4" d="M40.02,88.72c4.7,0,8.62-1.57,11.49-4.18l-5.62-4.31c-1.57,1.04-3.53,1.7-5.88,1.7-4.44,0-8.36-3-9.66-7.18h-5.75v4.44c3,5.88,8.88,9.53,15.41,9.53Z"></path><path class="cls-2" d="M30.36,74.74c-.78-2.09-.78-4.44,0-6.66v-4.44h-5.75c-2.48,4.83-2.48,10.58,0,15.54l5.75-4.44Z"></path><path class="cls-6" d="M40.02,61.03c2.48,0,4.83,.91,6.66,2.61h0l4.96-4.96c-3.13-2.87-7.31-4.57-11.49-4.44-6.53,0-12.54,3.66-15.41,9.53l5.75,4.44c1.18-4.18,5.09-7.18,9.53-7.18Z"></path></g></svg>