<svg xmlns="http://www.w3.org/2000/svg" id="Layer_1" data-name="Layer 1" viewBox="0 0 150 150"><defs><style>      .cls-1 {        fill: #fff;      }      .cls-2 {        fill: #f79e1b;      }      .cls-3 {        fill: #ff5f00;      }      .cls-4 {        fill: #eb001b;      }    </style></defs><rect class="cls-1" width="150" height="150" rx="40" ry="40"></rect><g><path class="cls-3" d="M87.17,96.71h-24.34V53.3h24.34v43.41Z"></path><path class="cls-4" d="M64.39,75c0-8.81,4.15-16.65,10.62-21.71-4.73-3.7-10.7-5.9-17.19-5.9-15.36,0-27.81,12.36-27.81,27.61s12.45,27.61,27.81,27.61c6.49,0,12.46-2.21,17.19-5.9-6.47-5.05-10.62-12.9-10.62-21.7"></path><path class="cls-2" d="M119.99,75c0,15.25-12.45,27.61-27.81,27.61-6.49,0-12.46-2.21-17.19-5.9,6.47-5.05,10.62-12.9,10.62-21.7s-4.15-16.65-10.62-21.71c4.73-3.7,10.7-5.9,17.19-5.9,15.36,0,27.81,12.36,27.81,27.61"></path></g></svg>