<svg xmlns="http://www.w3.org/2000/svg" id="Layer_1" data-name="Layer 1" viewBox="0 0 150 150"><defs><style>      .cls-1 {        fill: #fff;      }      .cls-2 {        fill: #00aeef;      }      .cls-3 {        fill: #253e8a;      }    </style></defs><rect class="cls-1" width="150" height="150" rx="40" ry="40"></rect><g><path class="cls-3" d="M112.07,73.59c0-13.35-16.6-24.24-37.07-24.24s-37.07,10.89-37.07,24.24c0,.35,0,1.3,0,1.42,0,14.17,14.5,25.65,37.06,25.65s37.07-11.47,37.07-25.64c0-.5,0-.78,0-1.43Z"></path><path class="cls-2" d="M110.65,73.57c0,12.59-15.95,22.8-35.64,22.8s-35.64-10.21-35.64-22.8,15.95-22.8,35.64-22.8,35.64,10.21,35.64,22.8Z"></path><path class="cls-1" d="M63.16,66.38s-.37,.41-.14,.7c.56,.72,2.3,1.13,4.06,.74,1.05-.23,2.39-1.3,3.68-2.33,1.41-1.12,2.8-2.24,4.21-2.69,1.48-.48,2.44-.27,3.07-.08,.69,.21,1.5,.66,2.8,1.63,2.44,1.83,12.24,10.39,13.94,11.87,1.37-.61,7.43-3.23,15.67-5.05-.72-4.39-3.39-8.42-7.44-11.7-5.65,2.37-12.55,3.61-19.3,.32-.03-.02-3.69-1.74-7.29-1.66-5.36,.12-7.68,2.44-10.13,4.9l-3.11,3.36Z"></path><path class="cls-1" d="M94.37,77.15c-.11-.1-11.53-10.09-14.12-12.04-1.5-1.12-2.33-1.41-3.2-1.52-.45-.06-1.08,.03-1.52,.14-1.2,.33-2.78,1.38-4.17,2.49-1.45,1.15-2.81,2.24-4.07,2.52-1.62,.36-3.59-.06-4.49-.67-.36-.25-.62-.53-.75-.82-.33-.77,.28-1.39,.38-1.49l3.15-3.41c.37-.36,.74-.73,1.11-1.09-1.01,.13-1.95,.39-2.87,.65-1.14,.32-2.24,.62-3.35,.62-.46,0-2.95-.41-3.42-.53-2.85-.78-5.35-1.54-9.09-3.28-4.48,3.33-7.48,7.5-8.34,12.09,.65,.17,1.68,.48,2.11,.58,10.13,2.25,13.29,4.58,13.86,5.06,.62-.69,1.51-1.13,2.52-1.13,1.12,0,2.13,.57,2.74,1.44,.58-.46,1.38-.85,2.41-.85,.47,0,.96,.09,1.45,.26,1.14,.39,1.74,1.15,2.04,1.84,.38-.17,.85-.3,1.41-.3s1.12,.12,1.69,.37c1.87,.8,2.16,2.64,1.99,4.02,.13-.02,.27-.02,.4-.02,2.22,0,4.02,1.8,4.02,4.02,0,.68-.18,1.33-.48,1.9,.6,.34,2.14,1.11,3.49,.93,1.08-.13,1.49-.5,1.63-.71,.1-.14,.21-.31,.11-.43l-2.86-3.18s-.47-.44-.32-.62c.16-.18,.45,.07,.66,.25,1.46,1.22,3.23,3.05,3.23,3.05,.03,.02,.15,.25,.81,.37,.57,.1,1.56,.04,2.26-.53,.18-.14,.35-.33,.5-.51-.01,.01-.02,.02-.03,.03,.73-.93-.08-1.88-.08-1.88l-3.34-3.75s-.48-.44-.32-.62c.14-.15,.45,.08,.66,.25,1.06,.89,2.55,2.38,3.98,3.79,.28,.2,1.54,.98,3.2-.11,1.01-.66,1.21-1.48,1.19-2.09-.07-.81-.7-1.39-.7-1.39l-4.54-4.59s-.48-.41-.31-.62c.14-.18,.45,.07,.66,.25,1.45,1.22,5.39,4.82,5.39,4.82,.05,.04,1.42,1.01,3.09-.06,.6-.38,.98-.96,1.01-1.63,.05-1.17-.77-1.86-.77-1.86Z"></path><path class="cls-1" d="M72.25,82.97c-.7-.01-1.48,.41-1.58,.35-.05-.04,.04-.32,.11-.49,.07-.16,1-2.96-1.27-3.94-1.74-.75-2.8,.09-3.16,.47-.1,.1-.14,.09-.15-.04-.04-.5-.26-1.87-1.76-2.33-2.14-.66-3.52,.84-3.87,1.38-.15-1.22-1.19-2.17-2.45-2.17-1.37,0-2.49,1.11-2.49,2.48s1.12,2.49,2.49,2.49c.67,0,1.27-.27,1.72-.69,.02,.01,.02,.04,.01,.09-.11,.61-.3,2.85,2.05,3.76,.94,.36,1.74,.09,2.4-.37,.2-.14,.23-.08,.2,.11-.09,.58,.02,1.8,1.75,2.5,1.31,.53,2.09-.01,2.6-.48,.22-.2,.28-.17,.29,.14,.06,1.67,1.45,2.98,3.12,2.98s3.13-1.4,3.13-3.12c0-1.74-1.4-3.12-3.13-3.13Z"></path><path class="cls-3" d="M94.83,75.96c-3.51-3.07-11.64-10.13-13.85-11.78-1.25-.95-2.11-1.45-2.87-1.67-.34-.1-.81-.22-1.41-.22-.56,0-1.16,.1-1.79,.3-1.42,.45-2.84,1.58-4.21,2.66l-.07,.05c-1.28,1.01-2.6,2.07-3.59,2.29-.44,.1-.89,.15-1.33,.15-1.12,0-2.13-.33-2.5-.81-.06-.08-.02-.21,.12-.4l.02-.03,3.09-3.33c2.42-2.42,4.71-4.71,9.98-4.83,.09,0,.18,0,.26,0,3.28,0,6.56,1.47,6.93,1.64,3.08,1.5,6.25,2.26,9.44,2.26s6.75-.82,10.36-2.48c-.4-.34-.82-.67-1.25-.99-3.17,1.37-6.19,2.07-9.1,2.07s-5.95-.72-8.83-2.13c-.15-.07-3.77-1.78-7.54-1.78-.1,0-.2,0-.3,0-4.43,.1-6.91,1.68-8.59,3.05-1.63,.04-3.04,.43-4.29,.78-1.12,.31-2.08,.58-3.02,.58-.39,0-1.08-.04-1.15-.04-1.08-.03-6.53-1.37-10.87-3.01-.44,.32-.87,.64-1.28,.97,4.53,1.86,10.04,3.29,11.78,3.41,.49,.03,1,.09,1.52,.09,1.15,0,2.3-.32,3.41-.64,.66-.19,1.38-.38,2.14-.53-.2,.2-.41,.4-.61,.6l-3.15,3.4c-.25,.25-.78,.92-.43,1.74,.14,.33,.43,.65,.83,.92,.75,.5,2.09,.84,3.34,.84,.47,0,.92-.05,1.33-.14,1.32-.29,2.7-1.4,4.16-2.56,1.16-.93,2.82-2.1,4.09-2.45,.35-.1,.79-.15,1.14-.15,.11,0,.2,0,.29,.02,.84,.11,1.65,.39,3.1,1.48,2.58,1.94,14,11.92,14.11,12.02,0,0,.74,.64,.68,1.68-.03,.58-.35,1.1-.91,1.46-.49,.31-.99,.46-1.5,.46-.76,0-1.29-.36-1.32-.38-.04-.03-3.95-3.62-5.39-4.83-.23-.19-.45-.36-.68-.36-.12,0-.22,.05-.3,.14-.22,.28,.03,.67,.33,.92l4.57,4.59s.57,.53,.63,1.24c.04,.76-.33,1.4-1.08,1.9-.54,.36-1.08,.53-1.62,.53-.7,0-1.2-.32-1.3-.4l-.66-.65c-1.2-1.18-2.43-2.4-3.34-3.15-.22-.18-.46-.35-.68-.35-.11,0-.21,.04-.29,.12-.1,.11-.18,.32,.08,.66,.11,.14,.23,.26,.23,.26l3.33,3.74s.69,.82,.07,1.6l-.12,.15c-.1,.11-.21,.21-.31,.3-.57,.46-1.33,.52-1.63,.52-.16,0-.32-.02-.45-.04-.33-.06-.55-.15-.66-.28l-.04-.04c-.18-.19-1.86-1.91-3.25-3.06-.18-.15-.41-.35-.65-.35-.12,0-.22,.05-.3,.13-.28,.3,.14,.75,.32,.92l2.85,3.13s-.04,.09-.11,.19c-.1,.14-.45,.49-1.48,.61-.12,.02-.25,.02-.38,.02-1.06,0-2.2-.52-2.78-.83,.27-.56,.41-1.18,.41-1.8,0-2.34-1.9-4.24-4.24-4.24-.05,0-.1,0-.15,0,.07-1.07-.07-3.09-2.15-3.98-.6-.26-1.2-.39-1.77-.39-.45,0-.89,.08-1.3,.23-.43-.84-1.14-1.45-2.08-1.76-.51-.18-1.03-.27-1.52-.27-.86,0-1.66,.26-2.37,.76-.68-.84-1.71-1.35-2.79-1.35-.95,0-1.86,.38-2.53,1.05-.89-.68-4.39-2.9-13.79-5.04-.45-.1-1.5-.4-2.14-.59-.11,.51-.19,1.03-.24,1.54,0,0,1.74,.42,2.07,.49,9.6,2.13,12.77,4.35,13.31,4.77-.18,.44-.28,.91-.28,1.38,0,1.98,1.61,3.6,3.6,3.6,.22,0,.44-.02,.66-.06,.3,1.46,1.25,2.57,2.71,3.13,.43,.17,.86,.25,1.28,.25,.27,0,.55-.03,.82-.1,.27,.68,.88,1.54,2.23,2.09,.48,.19,.95,.29,1.42,.29,.38,0,.75-.06,1.1-.2,.65,1.58,2.19,2.63,3.92,2.63,1.14,0,2.24-.46,3.04-1.29,.68,.38,2.13,1.07,3.59,1.07,.19,0,.37-.02,.54-.03,1.45-.18,2.13-.75,2.43-1.19,.05-.07,.11-.16,.15-.25,.34,.1,.72,.18,1.15,.18,.79,0,1.55-.27,2.32-.83,.75-.54,1.29-1.32,1.37-1.99,0-.01,0-.02,0-.03,.26,.05,.52,.08,.77,.08,.82,0,1.62-.26,2.39-.76,1.48-.97,1.74-2.24,1.71-3.06,.26,.05,.52,.08,.78,.08,.76,0,1.52-.23,2.23-.69,.92-.59,1.47-1.48,1.55-2.53,.06-.71-.12-1.43-.49-2.04,2.48-1.07,8.14-3.13,14.81-4.63-.04-.52-.11-1.03-.21-1.54-8.06,1.81-14.09,4.42-15.59,5.08Zm-22.56,13.04c-1.56,0-2.84-1.22-2.9-2.77,0-.13-.02-.49-.32-.49-.12,0-.23,.07-.35,.19-.34,.32-.78,.65-1.43,.65-.29,0-.6-.07-.94-.2-1.66-.67-1.68-1.8-1.61-2.26,.02-.12,.03-.25-.06-.35l-.1-.09h-.1c-.09,0-.17,.03-.29,.12-.48,.34-.94,.5-1.4,.5-.26,0-.52-.05-.78-.15-2.18-.85-2.01-2.9-1.9-3.52,.02-.12-.02-.22-.1-.29l-.15-.13-.14,.14c-.43,.41-.98,.64-1.56,.64-1.25,0-2.26-1.01-2.26-2.26s1.02-2.26,2.26-2.26c1.13,0,2.09,.85,2.23,1.98l.08,.61,.33-.51c.04-.06,.95-1.44,2.63-1.44,.32,0,.65,.05,.98,.15,1.34,.41,1.56,1.62,1.6,2.13,.02,.29,.23,.31,.27,.31,.12,0,.2-.07,.26-.14,.25-.26,.8-.7,1.67-.7,.4,0,.81,.1,1.25,.28,2.13,.91,1.16,3.62,1.15,3.65-.18,.45-.19,.65-.02,.76l.09,.04h.06c.1,0,.21-.04,.41-.11,.29-.1,.73-.25,1.14-.25,1.6,.02,2.9,1.32,2.9,2.9s-1.3,2.89-2.9,2.89Z"></path></g></svg>