<svg xmlns="http://www.w3.org/2000/svg" id="Layer_1" data-name="Layer 1" viewBox="0 0 150 150"><defs><style>      .cls-1 {        fill: #fff;      }      .cls-2 {        fill: #00c3f7;      }    </style></defs><rect class="cls-1" width="150" height="150" rx="40" ry="40"></rect><path class="cls-2" d="M97.76,46.32H49.22c-1.63,0-3.02,1.39-3.02,3.08v5.49c0,1.69,1.39,3.08,3.02,3.08h48.54c1.69,0,3.02-1.39,3.08-3.08v-5.43c0-1.75-1.39-3.14-3.08-3.14h0Zm0,30.49H49.22c-.78,0-1.57,.3-2.11,.91-.6,.6-.91,1.33-.91,2.17v5.49c0,1.69,1.39,3.08,3.02,3.08h48.54c1.69,0,3.02-1.33,3.08-3.08v-5.49c-.06-1.75-1.39-3.08-3.08-3.08Zm-21.19,15.21h-27.35c-.78,0-1.57,.3-2.11,.91s-.91,1.33-.91,2.17v5.49c0,1.69,1.39,3.08,3.02,3.08h27.29c1.69,0,3.02-1.39,3.02-3.02v-5.49c.06-1.81-1.27-3.2-2.96-3.14Zm24.27-30.49H49.22c-.78,0-1.57,.3-2.11,.91s-.91,1.33-.91,2.17v5.49c0,1.69,1.39,3.08,3.02,3.08h51.55c1.69,0,3.02-1.39,3.02-3.08v-5.49c.06-1.69-1.33-3.02-2.96-3.08Z"></path></svg>