<svg xmlns="http://www.w3.org/2000/svg" id="Layer_1" data-name="Layer 1" viewBox="0 0 150 150"><defs><style>      .cls-1 {        fill: #fff;      }      .cls-2 {        fill: #295cab;      }    </style></defs><rect class="cls-1" width="150" height="150" rx="40" ry="40"></rect><g><path class="cls-2" d="M138.48,69.77l-2.14,12.48c-.37,2.15-2.22,3.72-4.4,3.75l-114.14,1.35c-3.5,.04-6.36-2.78-6.36-6.28v-13.77c0-2.59,2.11-4.68,4.7-4.64l117.71,1.55c2.93,.04,5.12,2.68,4.63,5.56Z"></path><g><path class="cls-1" d="M27.56,70.47h-9.88c-.08,0-.14,.06-.14,.14v5.06c0,.08,.06,.14,.14,.14h6.46c.08,0,.14,.06,.14,.14v1.06c0,.08-.07,.14-.14,.14h-6.46c-.08,0-.14,.06-.14,.14v2.1c0,.08,.06,.14,.14,.14h9.88c.08,0,.14-.07,.14-.14v-5.27h-6.6c-.08,0-.14-.07-.14-.14v-.99c0-.08,.06-.14,.14-.14h6.46c.08,0,.14-.06,.14-.14v-2.1c0-.08-.07-.14-.14-.14Z"></path><path class="cls-1" d="M39.09,70.47h-9.88c-.08,0-.14,.06-.14,.14v5.06c0,.08,.07,.14,.14,.14h6.46c.08,0,.14,.06,.14,.14v1.06c0,.08-.06,.14-.14,.14h-6.46c-.08,0-.14,.06-.14,.14v2.1c0,.08,.07,.14,.14,.14h9.88c.08,0,.14-.07,.14-.14v-5.27h-6.6c-.08,0-.14-.07-.14-.14v-.99c0-.08,.07-.14,.14-.14h6.46c.08,0,.14-.06,.14-.14v-2.1c0-.08-.06-.14-.14-.14Z"></path><path class="cls-1" d="M49.12,75.99h-3.26c-.08,0-.14,.07-.14,.14v.88c0,.08-.06,.14-.14,.14h-1.78c-.08,0-.14-.07-.14-.14v-6.4c0-.08-.06-.14-.14-.14h-2.57c-.08,0-.14,.06-.14,.14v8.78c0,.08,.06,.14,.14,.14h8.17c.08,0,.14-.07,.14-.14v-3.26c0-.08-.07-.14-.14-.14Z"></path><path class="cls-1" d="M86.01,70.66h-5.82s-.07,.01-.1,.04l-.65,.65c-.05,.05-.14,.05-.2,0l-.65-.65s-.06-.04-.1-.04h-3.78s-.07,.01-.1,.04l-.65,.65c-.05,.05-.14,.05-.2,0l-.65-.65s-.06-.04-.1-.04h-1.71c-.08,0-.14,.06-.14,.14v2.1c0,.08,.06,.14,.14,.14h1.1c.08,0,.14,.06,.14,.14v6.21c0,.08,.06,.14,.14,.14h2.57c.08,0,.14-.07,.14-.14v-6.21c0-.08,.06-.14,.14-.14h2.25c.08,0,.14,.06,.14,.14v6.21c0,.08,.07,.14,.14,.14h2.57c.08,0,.14-.07,.14-.14v-6.21c0-.08,.06-.14,.14-.14h2.25c.08,0,.14,.06,.14,.14v6.21c0,.08,.07,.14,.14,.14h2.57c.08,0,.14-.07,.14-.14v-8.59c0-.08-.06-.14-.14-.14Z"></path><path class="cls-1" d="M70.11,70.47h-9.36c-.08,0-.14,.06-.14,.14v8.78c0,.08,.07,.14,.14,.14h9.36c.08,0,.14-.07,.14-.14v-8.78c0-.08-.06-.14-.14-.14Zm-2.71,6.55c0,.08-.06,.14-.14,.14h-3.66c-.08,0-.14-.07-.14-.14v-4.02c0-.08,.06-.14,.14-.14h3.66c.08,0,.14,.06,.14,.14v4.02Z"></path><path class="cls-1" d="M102.36,70.66h-5.82s-.07,.01-.1,.04l-.65,.65c-.06,.05-.14,.05-.2,0l-.65-.65s-.06-.04-.1-.04h-3.78s-.07,.01-.1,.04l-.65,.65c-.06,.05-.14,.05-.2,0l-.65-.65s-.06-.04-.1-.04h-1.71c-.08,0-.14,.06-.14,.14v2.1c0,.08,.06,.14,.14,.14h1.09c.08,0,.14,.06,.14,.14v6.21c0,.08,.07,.14,.14,.14h2.57c.08,0,.14-.07,.14-.14v-6.21c0-.08,.07-.14,.14-.14h2.25c.08,0,.14,.06,.14,.14v6.21c0,.08,.06,.14,.14,.14h2.57c.08,0,.14-.07,.14-.14v-6.21c0-.08,.07-.14,.14-.14h2.25c.08,0,.14,.06,.14,.14v6.21c0,.08,.06,.14,.14,.14h2.57c.08,0,.14-.07,.14-.14v-8.59c0-.08-.07-.14-.14-.14Z"></path><path class="cls-1" d="M122.53,70.47h-5.23s-.07,.01-.1,.04l-.65,.65c-.05,.05-.14,.05-.2,0l-.65-.65s-.06-.04-.1-.04h-1.71c-.08,0-.14,.06-.14,.14v2.1c0,.08,.06,.14,.14,.14h1.1c.08,0,.14,.06,.14,.14v6.4c0,.08,.06,.14,.14,.14h2.57c.08,0,.14-.07,.14-.14v-6.4c0-.08,.06-.14,.14-.14h1.56c.08,0,.14,.06,.14,.14v.77c0,.08,.06,.14,.14,.14h2.57c.08,0,.14-.06,.14-.14v-3.15c0-.08-.06-.14-.14-.14Z"></path><path class="cls-1" d="M59.29,70.47h-8.92c-.08,0-.14,.06-.14,.14v8.78c0,.08,.06,.14,.14,.14h8.92c.08,0,.14-.07,.14-.14v-3.26c0-.08-.06-.14-.14-.14h-3.26c-.08,0-.14,.07-.14,.14v.88c0,.08-.06,.14-.14,.14h-2.53c-.08,0-.14-.07-.14-.14v-4.02c0-.08,.07-.14,.14-.14h2.53c.08,0,.14,.06,.14,.14v.88c0,.08,.07,.14,.14,.14h3.26c.08,0,.14-.07,.14-.14v-3.26c0-.08-.06-.14-.14-.14Z"></path><path class="cls-1" d="M123.87,72.46h5.18l-1.47,1.47-1.23-1.08v3.5h3.97l-1.24-1.09,3.19-3.19c.12-.17,.2-.37,.2-.6,0-.28-.11-.53-.29-.71s-.43-.29-.71-.29h-7.6c-.08,0-.14,.06-.14,.14v1.71c0,.08,.06,.14,.14,.14Z"></path><path class="cls-1" d="M113.12,70.47h-8.92c-.08,0-.14,.06-.14,.14v8.78c0,.08,.07,.14,.14,.14h8.92c.08,0,.14-.07,.14-.14v-3.26c0-.08-.06-.14-.14-.14h-3.25c-.08,0-.14,.07-.14,.14v.88c0,.08-.07,.14-.14,.14h-2.53c-.08,0-.14-.07-.14-.14v-1.62c0-.08,.07-.14,.14-.14h6.07c.08,0,.14-.07,.14-.14v-4.5c0-.08-.06-.14-.14-.14Zm-3.4,3.2c0,.08-.07,.14-.14,.14h-2.53c-.08,0-.14-.06-.14-.14v-.68c0-.08,.07-.14,.14-.14h2.53c.08,0,.14,.06,.14,.14v.68Z"></path><path class="cls-1" d="M132.32,77.35h-4.95l.38-.41h-2.15l.03-1.69-2.38,2.49c-.12,.17-.2,.37-.2,.6,0,.28,.11,.53,.29,.71,.18,.18,.43,.29,.71,.29h8.29c.08,0,.14-.06,.14-.14v-1.71c0-.08-.06-.14-.14-.14Z"></path></g></g></svg>