<svg xmlns="http://www.w3.org/2000/svg" id="Layer_1" data-name="Layer 1" viewBox="0 0 150 150"><defs><style>      .cls-1 {        fill: #fff;      }      .cls-2 {        fill: #333;      }    </style></defs><rect class="cls-1" width="150" height="150" rx="40" ry="40"></rect><path class="cls-2" d="M51.2,57.92l-6.65,1.41-.03,21.86c0,4.04,3.04,6.65,7.08,6.65,2.24,0,3.88-.41,4.79-.91v-5.19c-.87,.35-5.17,1.61-5.17-2.41v-9.7h5.17v-5.8h-5.17l-.02-5.91Zm13.68,7.92l-.41-2.01h-5.89v23.52h6.8v-15.83c1.61-2.12,4.33-1.7,5.2-1.43v-6.26c-.92-.32-4.1-.92-5.69,2.01h0Zm14.17-11.1l-6.85,1.46v5.56l6.85-1.46v-5.56Zm-46.28,16.01c0-1.06,.89-1.47,2.32-1.49,2.07,0,4.71,.63,6.78,1.75v-6.42c-2.26-.89-4.51-1.24-6.77-1.24-5.53,0-9.21,2.89-9.21,7.71,0,7.55,10.36,6.32,10.36,9.58,0,1.26-1.09,1.67-2.61,1.67-2.26,0-5.17-.94-7.46-2.18v6.14c2.53,1.09,5.1,1.55,7.44,1.55,5.66,0,9.56-2.43,9.56-7.34,0-8.12-10.42-6.66-10.42-9.73h0Zm91.35,5.11c0-6.98-3.38-12.49-9.85-12.49s-10.42,5.51-10.42,12.45c0,8.21,4.65,12,11.28,12,3.25,0,5.69-.74,7.55-1.77v-5.13c-1.86,.94-3.99,1.5-6.69,1.5s-4.99-.94-5.3-4.13h13.34c.03-.35,.09-1.78,.09-2.44h0Zm-13.49-2.58c0-3.07,1.89-4.36,3.59-4.36s3.45,1.29,3.45,4.36h-7.05Zm-17.33-9.92c-2.67,0-4.39,1.26-5.34,2.13l-.35-1.69h-6v31.44l6.82-1.44,.02-7.71c.98,.72,2.44,1.72,4.82,1.72,4.88,0,9.33-3.56,9.33-12.22,.02-7.92-4.5-12.23-9.29-12.23h0Zm-1.63,18.8c-1.6,0-2.55-.58-3.21-1.29l-.05-10.13c.71-.78,1.69-1.35,3.25-1.35,2.49,0,4.21,2.79,4.21,6.35,.02,3.67-1.67,6.42-4.21,6.42Zm-19.45,5.17h6.85v-23.52h-6.85v23.52Z"></path></svg>