<svg xmlns="http://www.w3.org/2000/svg" id="Layer_1" data-name="Layer 1" viewBox="0 0 150 150"><defs><style>      .cls-1 {        fill: #fff;      }      .cls-2 {        fill: #233266;      }      .cls-3 {        fill: #54c1f0;      }    </style></defs><rect class="cls-1" width="150" height="150" rx="40" ry="40"></rect><g id="layer1"><g id="g52"><path id="path54" class="cls-3" d="M125.14,68.51c-.92-2.62-3.41-4.5-6.35-4.5h-.06c-1.91,0-3.63,.79-4.85,2.07-1.23-1.27-2.94-2.07-4.85-2.07h-.06c-1.68,0-3.21,.61-4.39,1.63v-.52c-.04-.51-.46-.92-.99-.92h-4.5c-.55,0-.99,.44-.99,1v24.44c0,.55,.44,1,.99,1h4.5c.5,0,.91-.37,.98-.86v-17.54c0-.06,0-.12,0-.18,.07-.78,.65-1.43,1.55-1.51h.83c.38,.03,.7,.17,.95,.37,.39,.31,.61,.79,.61,1.31l.02,17.46c0,.55,.45,1,.99,1h4.5c.53,0,.96-.42,.99-.95v-17.53c0-.58,.26-1.1,.73-1.41,.23-.15,.51-.25,.83-.28h.83c.97,.08,1.56,.82,1.56,1.68l.02,17.43c0,.55,.45,1,.99,1h4.5c.55,0,.99-.44,.99-1v-18.75c0-1.28-.14-1.82-.34-2.38"></path></g><g id="g56"><path id="path58" class="cls-3" d="M94.68,64.27h-2.57v-4.17h0c0-.51-.41-.92-.91-.92-.06,0-.12,0-.17,.02-2.85,.78-2.28,4.73-7.49,5.07h-.51c-.08,0-.15,.01-.22,.03h0c-.44,.1-.78,.5-.78,.97v4.5c0,.55,.45,.99,1,.99h2.72v19.08c0,.54,.44,.98,.98,.98h4.45c.54,0,.98-.44,.98-.98v-19.08h2.52c.55,0,.99-.45,.99-.99v-4.5c0-.55-.45-.99-.99-.99"></path></g><g id="g60"><path id="path62" class="cls-2" d="M78.49,64.27h-4.5c-.55,0-.99,.45-.99,.99v9.3c-.01,.58-.48,1.04-1.05,1.04h-1.88c-.58,0-1.06-.47-1.06-1.05l-.02-9.29c0-.55-.45-.99-.99-.99h-4.5c-.55,0-.99,.45-.99,.99v10.2c0,3.87,2.76,6.64,6.64,6.64,0,0,2.91,0,3,.02,.52,.06,.93,.5,.93,1.04s-.4,.97-.92,1.04c-.03,0-.05,.01-.08,.01l-6.58,.02c-.55,0-.99,.45-.99,.99v4.5c0,.55,.44,.99,.99,.99h7.36c3.88,0,6.64-2.76,6.64-6.64v-18.82c0-.55-.44-.99-.99-.99"></path></g><g id="g64"><path id="path66" class="cls-2" d="M34.93,72.51v2.78c0,.58-.47,1.06-1.05,1.06h-2.86s0-5.56,0-5.56h2.86c.58,0,1.05,.47,1.05,1.05v.68Zm.4-8.25h-9.84c-.54,0-.98,.44-.98,.98v4.41s0,.02,0,.03c0,.02,0,.04,0,.06v19.96c0,.54,.41,.98,.91,1h4.58c.55,0,.99-.44,.99-.99l.02-6.84h4.31c3.6,0,6.11-2.5,6.11-6.12v-6.35c0-3.62-2.51-6.13-6.11-6.13"></path></g><g id="g68"><path id="path70" class="cls-2" d="M53.6,83.08v.7c0,.06,0,.11-.02,.17-.01,.05-.03,.1-.04,.15-.14,.39-.53,.68-1,.68h-1.87c-.58,0-1.06-.44-1.06-.99v-.85s0-.02,0-.03v-2.26s0,0,0,0v-.7h0c0-.55,.47-.99,1.06-.99h1.87c.59,0,1.06,.44,1.06,.99v3.14Zm-.72-18.78h-6.24c-.55,0-1,.42-1,.93v1.75s0,.02,0,.03c0,.01,0,.03,0,.04v2.4c0,.54,.47,.99,1.06,.99h5.95c.47,.07,.84,.42,.9,.95v.58c-.05,.51-.42,.88-.87,.92h-2.94c-3.92,0-6.71,2.6-6.71,6.25v5.23c0,3.63,2.4,6.22,6.29,6.22h8.16c1.46,0,2.65-1.11,2.65-2.47v-17.07c0-4.14-2.13-6.75-7.23-6.75"></path></g></g></svg>