<svg xmlns="http://www.w3.org/2000/svg" id="Layer_1" data-name="Layer 1" viewBox="0 0 150 150"><defs><style>      .cls-1 {        fill: #fff;      }      .cls-2 {        fill: #eba12a;      }    </style></defs><rect class="cls-1" width="150" height="150" rx="40" ry="40"></rect><path class="cls-2" d="M109.44,90.66c-3-8.37-10.02-15.77-16.87-21.03,9.96-7.7,30.56-35.09-1.59-30.26-14.06,2.02-34.6,14.61-38.82,29.04-2.14-3.85-4.52-7.58-7.15-11.19-3.85-4.95-8.25-1.16-3.97,3.97,12.16,14.67,20.6,32.28,20.6,50,1.04-8.8-.55-19.56-4.28-30.07,1.89,.55,3.91,.86,5.75,.86,6.6,9.96,16.57,18.46,27.87,22.43,10.33,3.85,24.02,1.59,18.46-13.75Zm-15.47-47.74c17.85-1.83-1.28,18.7-7.58,22.56-5.87-3.55-13.14-6.66-20.29-5.81,5.13-6.11,17.6-15.59,27.87-16.75Zm-28.06,21.27c4.89-.43,10.15,2.14,14.18,4.71-3.85,1.83-8.13,3-12.59,3.24-6.54,.06-7.89-7.34-1.59-7.95Zm24.76,32.15c-8.44-2.26-16.26-8.5-22.01-14.92,4.71-.86,9.29-2.57,13.57-4.95,1.59-.67,3.18-1.71,4.58-2.69,5.01,4.28,10.15,9.9,12.16,16.32,1.96,6.97-3.42,7.52-8.31,6.23Z"></path></svg>