<svg xmlns="http://www.w3.org/2000/svg" id="Layer_1" data-name="Layer 1" viewBox="0 0 150 150"><defs><style>      .cls-1 {        fill: #fff;      }      .cls-2 {        fill: #001c64;      }      .cls-3 {        fill: #0070e0;      }      .cls-4 {        fill: #003087;      }    </style></defs><rect class="cls-1" width="150" height="150" rx="40" ry="40"></rect><g><path class="cls-2" d="M68.38,52.51c-1.06,0-1.97,.77-2.13,1.82l-3.55,22.49c.17-1.05,1.07-1.82,2.13-1.82h10.39c10.46,0,19.33-7.63,20.95-17.96,.12-.77,.19-1.55,.2-2.33-2.66-1.39-5.78-2.19-9.2-2.19h-18.8Z"></path><path class="cls-3" d="M96.37,54.7c-.02,.78-.08,1.56-.2,2.33-1.62,10.34-10.49,17.96-20.95,17.96h-10.39c-1.06,0-1.97,.77-2.13,1.82l-3.26,20.66-2.04,12.96c-.15,.96,.5,1.85,1.46,2.01,.09,.01,.18,.02,.28,.02h11.28c1.06,0,1.97-.77,2.13-1.82l2.97-18.84c.17-1.05,1.07-1.82,2.14-1.82h6.64c10.46,0,19.33-7.63,20.95-17.96,1.15-7.34-2.54-14.01-8.86-17.32h0Z"></path><path class="cls-4" d="M55.56,37.52c-1.06,0-1.97,.77-2.13,1.82l-8.85,56.11c-.17,1.07,.66,2.03,1.73,2.03h13.12l3.26-20.66,3.55-22.49c.17-1.05,1.07-1.82,2.13-1.82h18.8c3.42,0,6.54,.8,9.2,2.19,.18-9.41-7.58-17.18-18.26-17.18h-22.55Z"></path></g></svg>