<svg xmlns="http://www.w3.org/2000/svg" id="Layer_1" data-name="Layer 1" viewBox="0 0 150 150"><defs><style>      .cls-1 {        fill: #fff;      }      .cls-2 {        fill: #f7941d;      }      .cls-3 {        fill: #ed1c24;      }    </style></defs><rect class="cls-1" width="150" height="150" rx="40" ry="40"></rect><g><path id="path1392" class="cls-3" d="M105.2,77.47c.77,23.84-26.65,41.19-48.12,30.5-25.23-10.63-25.6-49.55-.72-60.72-.91,1.22-1.88,2.49-2.58,3.87h0c-4.07,3.21-7.24,7.47-9.02,12.32-.26,.72-.56,1.63-.86,2.29-.43,1.89-.84,3.91-.86,5.87h0c-1.79,32.44,42.06,43.86,56.13,14.75h0c2.32-4.67,3.15-10.16,2.58-15.47,.46,.49,.96,.82,1.43,1.29,.43-.72,.86-1.29,1.29-2,.47,2.19,.75,5.12,.72,7.3Z"></path><path id="path1394" class="cls-2" d="M75.41,50.4l-6.3-11.6c-16.27,6.58-22.97,29.48-12.6,43.96-2.15-13.83,6.16-27.49,18.9-32.36Z"></path><path id="path1396" class="cls-3" d="M80.42,56.13c4.2-1.13,9.04-1.3,13.32-.57-.09-3.27-.34-12.08-.43-15.47-6.64-1.06-13.9,.89-19.05,4.58l3.44,6.3c-9.25,3.23-16.09,11.49-17.47,21.19,4.09-7.91,11.27-13.81,20.19-16.04Z"></path><path id="path1398" class="cls-2" d="M95.46,50.26l.29,7.3c-13.21-4.24-28.41,3.47-32.65,16.75,8.55-12.83,28.84-15.32,39.81-4.15,2.25-3.34,6.94-10.47,9.16-13.89-4.58-3.72-10.31-6.01-16.61-6.01Z"></path><path id="path1400" class="cls-2" d="M101.9,74.03c.39,5.35-2.42,12.36-2.72,12.6h0c-14.22,29.11-57.77,17.73-56.13-14.75h0c.18-6.47,3.23-12.94,7.59-17.61,.14-.14,.14-.29,.29-.29,.81-1.01,1.96-1.66,2.86-2.58h0c-9.28,15.5-.31,45.72,17.61,43.96,15.44,.84,24.09-20.34,12.46-30.5,6.56,.17,13.03,2.6,18.04,6.73-.14,.57,0,1.58,0,2.43Z"></path><g id="g1404"><path id="path1402" class="cls-2" d="M101.9,74.03c-.54,18.06-13.7,29.22-29.78,29.64-27.65,.23-40.26-35.8-18.47-52.84-.07,.21-.21,.36-.29,.57-21.02,16.62-8.24,52.68,18.76,51.98,17.24-.54,30.51-13.35,29.21-32.51l.29,.29c.29,1.15,.29,2,.29,2.86Z"></path></g></g></svg>