<svg xmlns="http://www.w3.org/2000/svg" xmlns:xlink="http://www.w3.org/1999/xlink" id="Layer_1" data-name="Layer 1" viewBox="0 0 150 150"><defs><style>      .cls-1 {        fill: #fff;      }      .cls-2 {        mask: url(#mask-1);      }      .cls-3 {        mask: url(#mask);      }      .cls-4 {        fill: #1e64ff;      }      .cls-4, .cls-5 {        fill-rule: evenodd;      }      .cls-5 {        fill: #060809;      }    </style><mask id="mask" x="20.28" y="51.77" width="6.05" height="6.02" maskUnits="userSpaceOnUse"></mask><mask id="mask-1" x="76.04" y="51.77" width="6.06" height="6.02" maskUnits="userSpaceOnUse"></mask></defs><rect class="cls-1" width="150" height="150" rx="40" ry="40"></rect><g><path class="cls-5" d="M52.4,95.79c-.76,0-1.65-.58-1.65-1.82s.89-1.82,1.65-1.82,1.6,.54,1.6,1.82-.87,1.82-1.6,1.82m1.95-4.28c-.21,0-.39,.18-.39,.39v.56c-.29-.63-.96-.99-1.67-.99-1.05,0-2.32,.83-2.32,2.49s1.27,2.5,2.32,2.5c.84,0,1.49-.51,1.67-1.08v.67c0,.2,.18,.39,.39,.39s.39-.19,.39-.39v-4.16c0-.22-.17-.39-.39-.39m7.39,1.5h-1.09v-2.08h1.09c.71,0,1.23,.28,1.23,1.05s-.52,1.03-1.23,1.03m.06-3.16h-1.72c-.41,0-.7,.29-.7,.69v5.29c0,.35,.28,.64,.64,.64s.63-.29,.63-.64v-1.75h1.15c1.47,0,2.41-.9,2.41-2.1s-.94-2.12-2.41-2.12m5.39,5.55c-.62,0-1.27-.47-1.27-1.44s.65-1.44,1.27-1.44c.53,0,1.23,.38,1.23,1.44s-.7,1.44-1.23,1.44m1.79-3.9c-.34,0-.62,.28-.62,.6v.16c-.19-.44-.72-.8-1.39-.8-1.03,0-2.28,.82-2.28,2.49s1.24,2.5,2.28,2.5c.82,0,1.32-.51,1.39-.8v.18c0,.34,.29,.61,.62,.61s.63-.27,.63-.61v-3.74c0-.33-.3-.6-.63-.6m5.78,0c-.24,0-.45,.13-.58,.43l-1.29,2.9-1.26-2.9c-.13-.3-.36-.43-.59-.43-.32,0-.57,.25-.57,.55,0,.12,.04,.21,.07,.29l1.75,3.84-.54,1.22c-.02,.07-.06,.17-.06,.28,0,.29,.23,.55,.54,.55,.24,0,.47-.13,.59-.43l2.44-5.45c.03-.08,.08-.17,.08-.29,0-.29-.25-.55-.58-.55m6.35-1.69c-.36,0-.66,.28-.66,.61v3.6c0,.98-.62,1.37-1.35,1.37s-1.36-.39-1.36-1.37v-3.6c0-.33-.3-.61-.65-.61s-.62,.28-.62,.61v3.62c0,1.51,1.16,2.42,2.63,2.42s2.63-.9,2.63-2.42v-3.62c0-.33-.27-.61-.61-.61m6.9,2.34c.42,0,.88,.17,1.17,.54,.08,.09,.19,.18,.33,.18,.18,0,.33-.13,.33-.32,0-.15-.1-.25-.18-.34-.41-.5-1.01-.74-1.69-.74-1.11,0-2.45,.82-2.45,2.49s1.34,2.48,2.45,2.48c.68,0,1.27-.25,1.69-.75,.07-.09,.18-.19,.18-.34,0-.19-.15-.32-.33-.32-.14,0-.25,.08-.33,.18-.28,.37-.75,.54-1.17,.54-.84,0-1.71-.6-1.71-1.8s.87-1.8,1.71-1.8m4.91,3.62c-.78,0-1.67-.61-1.67-1.81s.89-1.81,1.67-1.81,1.68,.61,1.68,1.81-.89,1.81-1.68,1.81m0-4.3c-1.08,0-2.45,.83-2.45,2.5s1.37,2.49,2.45,2.49,2.46-.82,2.46-2.49-1.36-2.5-2.46-2.5m9.53,0c-.99,0-1.61,.65-1.87,1.22-.29-.89-1.02-1.22-1.72-1.22-1.12,0-1.7,.86-1.76,1.17v-.76c0-.22-.18-.39-.39-.39s-.39,.18-.39,.39v4.16c0,.2,.18,.39,.39,.39s.39-.19,.39-.39v-2.55c.08-.53,.57-1.34,1.53-1.34,.66,0,1.28,.39,1.28,1.4v2.48c0,.2,.17,.39,.39,.39s.39-.19,.39-.39v-2.55c.09-.53,.58-1.34,1.54-1.34,.66,0,1.27,.39,1.27,1.4v2.48c0,.2,.18,.39,.4,.39s.38-.19,.38-.39v-2.48c0-1.55-.94-2.09-1.83-2.09m5.34,4.3c-.74,0-1.6-.56-1.6-1.82s.86-1.82,1.6-1.82,1.65,.59,1.65,1.82-.88,1.82-1.65,1.82m.11-4.3c-.72,0-1.38,.36-1.68,.99v-.56c0-.22-.18-.39-.38-.39-.23,0-.39,.18-.39,.39v5.93c0,.21,.18,.39,.39,.39s.39-.18,.39-.39v-2.42c.2,.56,.84,1.05,1.67,1.05,1.05,0,2.32-.82,2.32-2.5s-1.27-2.49-2.32-2.49m5.43,4.3c-.77,0-1.65-.58-1.65-1.82s.88-1.82,1.65-1.82,1.6,.54,1.6,1.82-.87,1.82-1.6,1.82m1.95-4.28c-.2,0-.39,.18-.39,.39v.56c-.29-.63-.96-.99-1.67-.99-1.04,0-2.31,.83-2.31,2.49s1.27,2.5,2.31,2.5c.84,0,1.49-.51,1.67-1.08v.67c0,.2,.18,.39,.39,.39,.22,0,.39-.19,.39-.39v-4.16c0-.22-.17-.39-.39-.39m4.07-.02c-1.12,0-1.71,.86-1.76,1.17v-.76c0-.22-.18-.39-.39-.39s-.4,.18-.4,.39v4.16c0,.2,.18,.39,.4,.39s.38-.19,.38-.39v-2.55c.09-.53,.58-1.34,1.54-1.34,.66,0,1.28,.39,1.28,1.4v2.48c0,.2,.17,.39,.39,.39s.39-.19,.39-.39v-2.48c0-1.55-.95-2.09-1.84-2.09m6.58,.02c-.15,0-.29,.08-.37,.26l-1.54,3.58-1.54-3.57c-.07-.18-.22-.26-.37-.26-.2,0-.37,.17-.37,.36,0,.07,.02,.12,.04,.17l1.85,4.19-.63,1.46c-.02,.06-.04,.1-.04,.18,0,.18,.14,.35,.35,.35,.15,0,.29-.08,.37-.26l2.58-5.93c.02-.05,.04-.1,.04-.17,0-.19-.16-.36-.36-.36"></path><path class="cls-4" d="M23.31,60.44c-1.51,0-2.74,1.22-2.74,2.72v15.92c0,1.51,1.23,2.72,2.74,2.72s2.74-1.22,2.74-2.72v-15.92c0-1.5-1.23-2.72-2.74-2.72"></path><g class="cls-3"><path class="cls-4" d="M23.31,51.77c-1.67,0-3.03,1.35-3.03,3.01s1.35,3.01,3.03,3.01,3.03-1.35,3.03-3.01-1.36-3.01-3.03-3.01"></path></g><path class="cls-4" d="M72.34,79.08c0-1.5-1.23-2.72-2.74-2.72h-7.57l9.67-11.45c.97-1.15,.82-2.87-.34-3.83-.54-.45-1.2-.66-1.86-.64-.03,0-12.1,0-12.1,0-1.51,0-2.74,1.22-2.74,2.72s1.23,2.73,2.74,2.73h6.32l-9.67,11.45c-.97,1.15-.82,2.87,.34,3.83,.51,.43,1.14,.64,1.76,.64h13.44c1.51,0,2.74-1.22,2.74-2.72m24.14-13.56c1.5,0,2.91,.58,3.97,1.63,1.07,1.06,2.8,1.06,3.88,0,1.07-1.06,1.07-2.79,0-3.85-2.1-2.08-4.88-3.23-7.84-3.23s-5.74,1.15-7.84,3.23c-2.09,2.08-3.25,4.85-3.25,7.79s1.15,5.71,3.25,7.79c2.09,2.08,4.88,3.23,7.84,3.23s5.75-1.15,7.84-3.23c1.07-1.06,1.07-2.78,0-3.85-1.07-1.07-2.81-1.07-3.88,0-1.06,1.05-2.47,1.64-3.97,1.64s-2.91-.59-3.96-1.64c-1.06-1.05-1.64-2.45-1.64-3.94s.58-2.89,1.64-3.94c1.06-1.06,2.47-1.63,3.96-1.63m22.15,11.15c-3.09,0-5.61-2.5-5.61-5.58s2.51-5.57,5.61-5.57,5.61,2.5,5.61,5.57-2.52,5.58-5.61,5.58m0-16.6c-6.11,0-11.09,4.94-11.09,11.02s4.97,11.02,11.09,11.02,11.09-4.95,11.09-11.02-4.97-11.02-11.09-11.02m-39.56,.36c-1.51,0-2.74,1.22-2.74,2.72v15.92c0,1.51,1.23,2.72,2.74,2.72s2.74-1.22,2.74-2.72v-15.92c0-1.5-1.22-2.72-2.74-2.72"></path><g class="cls-2"><path class="cls-4" d="M79.07,51.77c-1.67,0-3.03,1.35-3.03,3.01s1.36,3.01,3.03,3.01,3.03-1.35,3.03-3.01-1.35-3.01-3.03-3.01"></path></g><path class="cls-4" d="M49.91,60.74c-1.34-.69-3-.17-3.69,1.16l-5.88,11.26-5.88-11.26c-.7-1.33-2.35-1.85-3.69-1.16-1.34,.7-1.87,2.34-1.17,3.67l7.65,14.66-3.53,6.78c-.7,1.34-.18,2.98,1.17,3.67,.44,.23,.92,.33,1.38,.3,.95-.04,1.85-.57,2.32-1.46l12.49-23.95c.7-1.34,.18-2.98-1.16-3.67"></path></g></svg>