<svg xmlns="http://www.w3.org/2000/svg" id="Layer_1" data-name="Layer 1" viewBox="0 0 150 150"><defs><style>      .cls-1 {        fill: #fff;      }    </style></defs><rect class="cls-1" width="150" height="150" rx="40" ry="40"></rect><g><path d="M66.82,69.56c-5.83,0-10.56,4.74-10.56,10.56s4.74,10.56,10.56,10.56,10.56-4.74,10.56-10.56-4.73-10.56-10.56-10.56h0Zm0,16.13c-3.06,0-5.56-2.49-5.56-5.56s2.49-5.56,5.56-5.56,5.56,2.49,5.56,5.56-2.49,5.56-5.56,5.56Z"></path><path d="M101.96,65.9c1.82,0,3.3-1.47,3.3-3.3s-1.48-3.29-3.3-3.29-3.3,1.47-3.3,3.3,1.48,3.29,3.3,3.29Z"></path><path d="M45.25,69.57c-.28-.02-.54-.03-.81-.03-2.55,0-4.97,1.04-6.7,2.89-1.73-1.84-4.14-2.89-6.66-2.89-5.05,0-9.17,4.11-9.17,9.16v11.56h4.94v-11.42c0-2.1,1.72-4.03,3.75-4.24,.14-.01,.28-.02,.42-.02,2.29,0,4.15,1.86,4.16,4.15v11.53h5.05v-11.44c0-2.09,1.71-4.02,3.75-4.23,.14-.01,.28-.02,.42-.02,2.29,0,4.16,1.86,4.17,4.13v11.56h5.05v-11.42c0-2.32-.86-4.55-2.4-6.27-1.54-1.73-3.66-2.8-5.97-3h0Z"></path><path d="M85.16,59.81h-5.05v30.47h5.05v-30.47Zm9.67,0h-5.05v30.47h5.05v-30.47Zm9.66,10.26h-5.05v20.21h5.05v-20.21Z"></path><path d="M128.1,79.65c0-2.68-1.04-5.2-2.93-7.13-1.9-1.92-4.4-2.99-7.07-2.99h-.13c-2.77,.03-5.38,1.13-7.34,3.1s-3.05,4.57-3.08,7.34c-.03,2.83,1.05,5.51,3.06,7.54,2.01,2.03,4.67,3.15,7.5,3.15h.01c3.71,0,7.19-1.99,9.09-5.18l.24-.41-4.17-2.05-.21,.34c-1.05,1.72-2.86,2.74-4.87,2.74-2.57,0-4.79-1.71-5.47-4.15h15.36v-2.32Zm-10.2-5.53c2.31,0,4.37,1.52,5.1,3.67h-10.18c.71-2.15,2.78-3.67,5.08-3.67h0Z"></path></g></svg>