<svg xmlns="http://www.w3.org/2000/svg" id="Layer_1" data-name="Layer 1" viewBox="0 0 150 150"><defs><style>      .cls-1 {        fill: #fff;      }      .cls-2 {        fill: #862165;        fill-rule: evenodd;      }    </style></defs><rect class="cls-1" width="150" height="150" rx="40" ry="40"></rect><g><path class="cls-2" d="M121.91,59.65v34.06h9.37V57.99l-9.37,1.67"></path><path class="cls-2" d="M108.23,59.65l9.37-1.67v35.73h-9.37V59.65"></path><path class="cls-2" d="M94.89,93.72v-26.13h9.37v26.13h-9.37"></path><path class="cls-2" d="M94.96,60.49c0-2.53,2.07-4.59,4.62-4.59s4.62,2.06,4.62,4.59-2.07,4.59-4.62,4.59-4.62-2.05-4.62-4.59"></path><path class="cls-2" d="M89.61,67.2c-8.66,.28-13.06,4.14-13.06,11.82v14.7h9.45v-11.99c0-4.59,.61-6.56,6.09-6.75v-7.64c-.92-.2-2.49-.14-2.49-.14h0"></path><path class="cls-2" d="M64.19,67.55c-.21,.52-1.7,4.73-5.34,9.1v-18.66l-9.67,1.9v33.83h9.67v-10.46c2.8,4.17,4.18,10.46,4.18,10.46h11.58c-1.15-4.73-6.16-13.46-6.16-13.46,4.5-5.67,6.47-11.71,6.79-12.71h-11.06"></path><path class="cls-2" d="M32.96,71.28c-1.18-.08-3.93-.25-3.93-2.71,0-2.96,3.95-2.96,5.43-2.96,2.6,0,5.98,.76,8.39,1.48,0,0,1.34,.47,2.48,.95l.11,.03v-8.11l-.14-.04c-2.85-.99-6.15-1.94-12.27-1.94-10.56,0-14.31,6.11-14.31,11.35,0,3.02,1.3,10.13,13.4,10.95,1.03,.06,3.75,.22,3.75,2.75,0,2.09-2.23,3.33-5.98,3.33-4.11,0-8.09-1.04-10.51-2.03v8.35c3.62,.95,7.71,1.41,12.49,1.41,10.32,0,14.95-5.78,14.95-11.52,0-6.5-5.18-10.72-13.86-11.3h0"></path></g></svg>