<svg xmlns="http://www.w3.org/2000/svg" id="Layer_1" data-name="Layer 1" viewBox="0 0 150 150"><defs><style>      .cls-1 {        fill: #fff;      }      .cls-2 {        letter-spacing: .01em;      }      .cls-3 {        letter-spacing: 0em;      }      .cls-4 {        font-family: MyriadPro-Regular, 'Myriad Pro';        font-size: 12px;      }      .cls-5 {        letter-spacing: 0em;      }      .cls-6 {        letter-spacing: 0em;      }      .cls-7 {        fill: #006f50;      }      .cls-8 {        letter-spacing: 0em;      }    </style></defs><rect class="cls-1" width="150" height="150" rx="40" ry="40"></rect><g><path class="cls-7" d="M43.44,58.89c-4.02,.23-7.73,.38-11.43,.68-1.14,.09-2.32,.07-2.56-1.05-.17-.79,.31-2.1,.95-2.58,.89-.67,2.19-1.06,3.32-1.07,9.17-.09,18.35-.08,27.52-.07,.66,0,1.48,.06,1.95,.43,.56,.44,1.13,1.24,1.15,1.9,.01,.56-.65,1.36-1.22,1.65-.72,.37-1.65,.46-2.48,.46-2.92,0-5.85-.05-8.77-.17-1.08-.05-1.52,.37-1.72,1.37-2.09,10.12-4.25,20.22-6.28,30.35-.68,3.42-2.02,4.73-5.22,4.45-2.19-.19-2.87-1.37-2.39-3.47,2.22-9.74,4.36-19.49,6.52-29.24,.23-1.05,.38-2.11,.65-3.63Z"></path><path class="cls-7" d="M72.69,64.65c-12.33-1.41-23.13,10.99-20.05,22.98,.95,3.66,3.23,5.96,6.85,6.97,3.44,.96,6.93,.9,10.36,.09,1.05-.26,1.99-1.21,2.78-2.04,.34-.36,.33-1.31,.1-1.81-.11-.24-1.09-.22-1.65-.16-2.1,.24-4.19,.79-6.27,.76-4.74-.09-7.3-3.76-6.07-8.35,2.74-.27,5.5-.39,8.19-.85,4.46-.76,8.51-2.44,11.09-6.44,3.44-5.34,.99-10.43-5.34-11.15Zm.42,8.52c-.2,.53-.44,1.09-.8,1.51-3.46,4.06-7.88,6.24-13.4,6.89,.47-3.44,1.28-6.47,3.04-9.14,1.75-2.65,4.19-4.39,7.49-4.51,3.23-.1,4.84,2.24,3.67,5.25Z"></path><path class="cls-7" d="M88.05,95.27c-.4,0-.8,.02-1.2,0-4.31-.24-6.56-2.7-6.03-6.96,.44-3.5,1.22-6.96,1.82-10.44,1.17-6.79,2.27-13.59,3.53-20.37,.16-.85,1-2.03,1.74-2.22,1.5-.37,3.34-1.35,4.64,.25,.48,.6,.48,1.81,.31,2.67-1.86,9.45-3.79,18.89-5.69,28.33-.12,.61-.19,1.25-.17,1.87,.07,1.89,1.37,3.06,3.27,2.9,.85-.07,1.68-.4,2.53-.45,.5-.03,1.23,.11,1.46,.44,.25,.35,.25,1.27-.02,1.52-.88,.82-1.87,1.65-2.96,2.1-.96,.4-2.13,.3-3.21,.43,0-.03,0-.06,0-.09Z"></path><path class="cls-7" d="M108.32,73.35c1.32-1.93,2.3-3.45,3.37-4.91,1.61-2.18,3.72-3.76,6.35-4.42,.71-.18,1.89,.15,2.32,.68,.36,.45,.26,1.83-.18,2.26-.94,.91-2.15,1.84-3.39,2.12-5.03,1.14-7.84,4.44-8.98,9.13-1.1,4.54-1.77,9.18-2.58,13.78-.35,1.96-1.61,3.17-3.57,3.28-1.87,.11-3.43-1.21-2.92-3.59,1.7-7.96,2.93-16.03,4.46-24.03,.19-.98,.94-2.41,1.7-2.61,1.37-.36,2.97-.07,4.42,.24,.32,.07,.63,1.4,.51,2.07-.34,1.87-.91,3.7-1.51,6.02Z"></path></g><text class="cls-4" transform="translate(86 86)"><tspan class="cls-2" x="0" y="0">R</tspan><tspan x="6.6" y="0">a</tspan><tspan class="cls-5" x="12.38" y="0">z</tspan><tspan x="17.44" y="0">o</tspan><tspan class="cls-3" x="24.02" y="0">r</tspan><tspan class="cls-6" x="28" y="0">p</tspan><tspan class="cls-8" x="34.82" y="0">a</tspan><tspan class="cls-6" x="40.51" y="0">y</tspan></text></svg>