<svg xmlns="http://www.w3.org/2000/svg" id="Layer_1" data-name="Layer 1" viewBox="0 0 150 150"><defs><style>      .cls-1 {        fill: #fff;      }      .cls-2 {        fill: #002984;      }    </style></defs><rect class="cls-1" width="150" height="150" rx="40" ry="40"></rect><g><path class="cls-2" d="M37.93,72.23c.26-1.55,.48-3.12,.8-4.66,3.33-15.9,16.5-27.69,32.72-29.31,19.27-1.92,36.98,11.65,40.13,30.76,3.31,20.1-10.49,39.21-30.64,42.42-19.79,3.16-38.39-9.76-42.29-29.39-.29-1.45-.48-2.91-.72-4.37,0-1.82,0-3.64,0-5.46Zm36.99,37.12c19.01,.01,34.51-15.3,34.54-34.14,.03-19.1-15.3-34.49-34.42-34.55-19.08-.06-34.53,15.43-34.5,34.6,.02,18.69,15.54,34.08,34.38,34.09Z"></path><path class="cls-2" d="M76.43,106.69c-17.53-.02-30.9-11.93-32.86-27.73-1.48-11.91,2.88-21.34,11.94-28.86,.39-.32,.96-.59,1.43-.57,.35,.01,.86,.48,.97,.84,.11,.35-.07,.96-.34,1.24-.94,.96-1.99,1.82-2.98,2.73-13.84,12.8-11.06,37.3,7.06,46.52,17.42,8.85,38.78-1.58,42.04-20.81,.28-1.62,.32-3.28,.48-4.93,.08-.79,.43-1.36,1.31-1.38,.76-.01,1.27,.59,1.23,1.54-.38,9.14-3.31,17.18-10.46,23.26-6.14,5.23-13.23,8.12-19.84,8.16Z"></path><path class="cls-2" d="M51.13,75.01c0,9.9,6.24,18.85,15.54,22.3,.41,.15,.93,.23,1.18,.53,.3,.36,.62,1.02,.47,1.36-.17,.4-.79,.7-1.27,.86-.29,.1-.72-.13-1.06-.26-10.02-4-16.11-11.2-17.21-22.01-1.08-10.67,3.06-19.16,12.06-25,12.08-7.84,28.3-4.22,36.28,7.88,.56,.84,1.07,1.71,1.54,2.61,.51,.98,.33,1.74-.41,2.09-.75,.36-1.38,.05-1.91-.96-3.02-5.74-7.53-9.81-13.7-11.9-15.46-5.23-31.54,6.28-31.53,22.52Z"></path><path class="cls-2" d="M70.15,88.15h-2.97v-23.68h2.97c0,.39,0,.75,0,1.11,0,2.83,.02,5.66-.01,8.49-.01,.76,.24,.98,.99,.98,3.41-.03,6.82-.03,10.23,0,.78,0,.97-.27,.96-1-.03-3.16-.01-6.33-.01-9.65,.9,0,1.73-.06,2.55,.04,.21,.03,.5,.54,.51,.84,.05,1.99,.02,3.97,.02,5.96,0,5.19,0,10.38,0,15.57,0,.4,0,.8,0,1.3h-3.08c0-.37,0-.73,0-1.08,0-2.86-.02-5.73,.01-8.59,0-.7-.12-1.03-.93-1.02-3.44,.04-6.89,.03-10.33,0-.73,0-.92,.26-.91,.94,.03,2.86,.01,5.73,.01,8.59,0,.36,0,.73,0,1.21Z"></path></g></svg>